<mxfile host="app.diagrams.net" modified="2023-12-31T11:07:44.854Z" agent="Mozilla/5.0 (Windows NT 10.0; Win64; x64) AppleWebKit/537.36 (KHTML, like Gecko) Chrome/120.0.0.0 Safari/537.36" etag="8gCuGJY5gQjnRGsPcfWr" version="22.1.16" type="device">
  <diagram id="R2lEEEUBdFMjLlhIrx00" name="Page-1">
    <mxGraphModel dx="775" dy="424" grid="1" gridSize="10" guides="1" tooltips="1" connect="1" arrows="1" fold="1" page="1" pageScale="1" pageWidth="3300" pageHeight="4681" math="0" shadow="0" extFonts="Permanent Marker^https://fonts.googleapis.com/css?family=Permanent+Marker">
      <root>
        <mxCell id="0" />
        <mxCell id="1" parent="0" />
        <mxCell id="oi-J7NC_e-j-eJ_lcssu-4" value="Prodotto" style="rounded=0;whiteSpace=wrap;html=1;fontSize=16;strokeWidth=1;fontStyle=0;fontFamily=Arial;" parent="1" vertex="1">
          <mxGeometry x="1345" y="590" width="120" height="60" as="geometry" />
        </mxCell>
        <mxCell id="b5X4EiwwMwYe8SFA5KDC-91" style="edgeStyle=orthogonalEdgeStyle;rounded=0;orthogonalLoop=1;jettySize=auto;html=1;fontFamily=Arial;fontSize=8;endArrow=none;endFill=0;strokeWidth=1;fillColor=#000000;" parent="1" source="oi-J7NC_e-j-eJ_lcssu-5" edge="1">
          <mxGeometry relative="1" as="geometry">
            <mxPoint x="1340" y="240" as="targetPoint" />
            <Array as="points">
              <mxPoint x="1145" y="270" />
              <mxPoint x="1340" y="270" />
            </Array>
          </mxGeometry>
        </mxCell>
        <mxCell id="oi-J7NC_e-j-eJ_lcssu-5" value="&lt;font style=&quot;font-size: 16px&quot;&gt;Commerciale&lt;/font&gt;" style="rounded=0;whiteSpace=wrap;html=1;fontSize=16;strokeWidth=1;fontStyle=0;fontFamily=Arial;" parent="1" vertex="1">
          <mxGeometry x="1085" y="320" width="120" height="60" as="geometry" />
        </mxCell>
        <mxCell id="b5X4EiwwMwYe8SFA5KDC-92" style="edgeStyle=orthogonalEdgeStyle;rounded=0;orthogonalLoop=1;jettySize=auto;html=1;entryX=0.5;entryY=1;entryDx=0;entryDy=0;fontFamily=Arial;fontSize=8;endArrow=none;endFill=0;strokeWidth=1;fillColor=#000000;" parent="1" source="oi-J7NC_e-j-eJ_lcssu-6" target="oi-J7NC_e-j-eJ_lcssu-9" edge="1">
          <mxGeometry relative="1" as="geometry">
            <Array as="points">
              <mxPoint x="1275" y="270" />
              <mxPoint x="1340" y="270" />
            </Array>
          </mxGeometry>
        </mxCell>
        <mxCell id="oi-J7NC_e-j-eJ_lcssu-6" value="&lt;font style=&quot;font-size: 16px&quot;&gt;Consulente&lt;/font&gt;" style="rounded=0;whiteSpace=wrap;html=1;fontSize=16;strokeWidth=1;fontStyle=0;fontFamily=Arial;" parent="1" vertex="1">
          <mxGeometry x="1215" y="320" width="120" height="60" as="geometry" />
        </mxCell>
        <mxCell id="b5X4EiwwMwYe8SFA5KDC-93" style="edgeStyle=orthogonalEdgeStyle;rounded=0;orthogonalLoop=1;jettySize=auto;html=1;entryX=0.5;entryY=1;entryDx=0;entryDy=0;fontFamily=Arial;fontSize=8;endArrow=none;endFill=0;strokeWidth=1;fillColor=#000000;" parent="1" source="oi-J7NC_e-j-eJ_lcssu-7" target="oi-J7NC_e-j-eJ_lcssu-9" edge="1">
          <mxGeometry relative="1" as="geometry">
            <Array as="points">
              <mxPoint x="1405" y="270" />
              <mxPoint x="1340" y="270" />
            </Array>
          </mxGeometry>
        </mxCell>
        <mxCell id="oi-J7NC_e-j-eJ_lcssu-7" value="&lt;font style=&quot;font-size: 16px&quot;&gt;Sviluppatore&lt;/font&gt;" style="rounded=0;whiteSpace=wrap;html=1;fontSize=16;strokeWidth=1;fontStyle=0;fontFamily=Arial;" parent="1" vertex="1">
          <mxGeometry x="1345" y="320" width="120" height="60" as="geometry" />
        </mxCell>
        <mxCell id="b5X4EiwwMwYe8SFA5KDC-94" style="edgeStyle=orthogonalEdgeStyle;rounded=0;orthogonalLoop=1;jettySize=auto;html=1;entryX=0.5;entryY=1;entryDx=0;entryDy=0;fontFamily=Arial;fontSize=8;endArrow=none;endFill=0;strokeWidth=1;fillColor=#000000;" parent="1" source="oi-J7NC_e-j-eJ_lcssu-8" target="oi-J7NC_e-j-eJ_lcssu-9" edge="1">
          <mxGeometry relative="1" as="geometry">
            <Array as="points">
              <mxPoint x="1535" y="270" />
              <mxPoint x="1340" y="270" />
            </Array>
          </mxGeometry>
        </mxCell>
        <mxCell id="oi-J7NC_e-j-eJ_lcssu-8" value="&lt;font style=&quot;font-size: 16px&quot;&gt;Responsabile&lt;/font&gt;" style="rounded=0;whiteSpace=wrap;html=1;fontSize=16;strokeWidth=1;fontStyle=0;fontFamily=Arial;" parent="1" vertex="1">
          <mxGeometry x="1475" y="320" width="120" height="60" as="geometry" />
        </mxCell>
        <mxCell id="oi-J7NC_e-j-eJ_lcssu-9" value="Impiegato" style="rounded=0;whiteSpace=wrap;html=1;fontSize=16;strokeWidth=1;fontStyle=0;fontFamily=Arial;" parent="1" vertex="1">
          <mxGeometry x="1280" y="182.5" width="120" height="60" as="geometry" />
        </mxCell>
        <mxCell id="b5X4EiwwMwYe8SFA5KDC-89" style="edgeStyle=orthogonalEdgeStyle;rounded=0;orthogonalLoop=1;jettySize=auto;html=1;exitX=0.5;exitY=1;exitDx=0;exitDy=0;fontFamily=Arial;fontSize=8;endArrow=none;endFill=0;strokeWidth=1;fillColor=#000000;" parent="1" source="oi-J7NC_e-j-eJ_lcssu-10" edge="1">
          <mxGeometry relative="1" as="geometry">
            <mxPoint x="1340" y="180" as="targetPoint" />
            <Array as="points">
              <mxPoint x="1285" y="160" />
            </Array>
          </mxGeometry>
        </mxCell>
        <mxCell id="oi-J7NC_e-j-eJ_lcssu-10" value="&lt;font style=&quot;font-size: 15px&quot;&gt;Libero &lt;br&gt;professionista&lt;/font&gt;" style="rounded=0;whiteSpace=wrap;html=1;fontSize=16;strokeWidth=1;fontStyle=0;fontFamily=Arial;" parent="1" vertex="1">
          <mxGeometry x="1235" y="110" width="100" height="40" as="geometry" />
        </mxCell>
        <mxCell id="oi-J7NC_e-j-eJ_lcssu-11" value="Sede" style="rounded=0;whiteSpace=wrap;html=1;fontSize=16;strokeWidth=1;fontStyle=0;fontFamily=Arial;" parent="1" vertex="1">
          <mxGeometry x="1475" y="80" width="120" height="60" as="geometry" />
        </mxCell>
        <mxCell id="oi-J7NC_e-j-eJ_lcssu-12" value="Versione" style="rounded=0;whiteSpace=wrap;html=1;fontSize=16;strokeWidth=1;fontStyle=0;fontFamily=Arial;" parent="1" vertex="1">
          <mxGeometry x="1345" y="800" width="120" height="60" as="geometry" />
        </mxCell>
        <mxCell id="oi-J7NC_e-j-eJ_lcssu-13" value="Aggiornamento" style="rounded=0;whiteSpace=wrap;html=1;fontSize=16;strokeWidth=1;fontStyle=0;fontFamily=Arial;" parent="1" vertex="1">
          <mxGeometry x="1350" y="950" width="120" height="60" as="geometry" />
        </mxCell>
        <mxCell id="b5X4EiwwMwYe8SFA5KDC-90" style="edgeStyle=orthogonalEdgeStyle;rounded=0;orthogonalLoop=1;jettySize=auto;html=1;fontFamily=Arial;fontSize=8;endArrow=none;endFill=0;strokeWidth=1;fillColor=#000000;" parent="1" source="oi-J7NC_e-j-eJ_lcssu-19" edge="1">
          <mxGeometry relative="1" as="geometry">
            <mxPoint x="1340" y="160" as="targetPoint" />
            <Array as="points">
              <mxPoint x="1400" y="160" />
            </Array>
          </mxGeometry>
        </mxCell>
        <mxCell id="oi-J7NC_e-j-eJ_lcssu-19" value="Dipendente" style="rounded=0;whiteSpace=wrap;html=1;fontSize=16;strokeWidth=1;fontStyle=0;fontFamily=Arial;" parent="1" vertex="1">
          <mxGeometry x="1345" y="110" width="100" height="40" as="geometry" />
        </mxCell>
        <mxCell id="_fapoDE7ZvtlARoi-Pqi-3" value="Consulenza" style="rounded=0;whiteSpace=wrap;html=1;fontSize=16;strokeWidth=1;fontStyle=0;fontFamily=Arial;" parent="1" vertex="1">
          <mxGeometry x="1215" y="590" width="120" height="60" as="geometry" />
        </mxCell>
        <mxCell id="b5X4EiwwMwYe8SFA5KDC-152" style="edgeStyle=orthogonalEdgeStyle;rounded=0;orthogonalLoop=1;jettySize=auto;html=1;fontFamily=Arial;fontSize=8;endArrow=none;endFill=0;strokeWidth=1;fillColor=#000000;" parent="1" source="_fapoDE7ZvtlARoi-Pqi-4" target="oi-J7NC_e-j-eJ_lcssu-4" edge="1">
          <mxGeometry relative="1" as="geometry">
            <Array as="points">
              <mxPoint x="1485" y="570" />
              <mxPoint x="1485" y="620" />
            </Array>
          </mxGeometry>
        </mxCell>
        <mxCell id="_fapoDE7ZvtlARoi-Pqi-4" value="ContabilitÃ " style="rounded=0;html=1;fontSize=16;labelBorderColor=none;whiteSpace=wrap;spacing=1;glass=0;strokeWidth=1;fontStyle=0;fontFamily=Arial;" parent="1" vertex="1">
          <mxGeometry x="1495" y="550" width="100" height="40" as="geometry" />
        </mxCell>
        <mxCell id="b5X4EiwwMwYe8SFA5KDC-153" style="edgeStyle=orthogonalEdgeStyle;rounded=0;orthogonalLoop=1;jettySize=auto;html=1;entryX=1;entryY=0.5;entryDx=0;entryDy=0;fontFamily=Arial;fontSize=8;endArrow=none;endFill=0;strokeWidth=1;fillColor=#000000;" parent="1" source="_fapoDE7ZvtlARoi-Pqi-5" target="oi-J7NC_e-j-eJ_lcssu-4" edge="1">
          <mxGeometry relative="1" as="geometry" />
        </mxCell>
        <mxCell id="_fapoDE7ZvtlARoi-Pqi-5" value="Magazzino" style="rounded=0;whiteSpace=wrap;html=1;fontSize=16;strokeWidth=1;fontStyle=0;fontFamily=Arial;" parent="1" vertex="1">
          <mxGeometry x="1495" y="600" width="100" height="40" as="geometry" />
        </mxCell>
        <mxCell id="b5X4EiwwMwYe8SFA5KDC-154" style="edgeStyle=orthogonalEdgeStyle;rounded=0;orthogonalLoop=1;jettySize=auto;html=1;entryX=1;entryY=0.5;entryDx=0;entryDy=0;fontFamily=Arial;fontSize=8;endArrow=none;endFill=0;strokeWidth=1;fillColor=#000000;" parent="1" source="_fapoDE7ZvtlARoi-Pqi-6" target="oi-J7NC_e-j-eJ_lcssu-4" edge="1">
          <mxGeometry relative="1" as="geometry">
            <Array as="points">
              <mxPoint x="1485" y="670" />
              <mxPoint x="1485" y="620" />
            </Array>
          </mxGeometry>
        </mxCell>
        <mxCell id="_fapoDE7ZvtlARoi-Pqi-6" value="Budgeting" style="rounded=0;whiteSpace=wrap;html=1;fontSize=16;strokeWidth=1;fontStyle=0;fontFamily=Arial;" parent="1" vertex="1">
          <mxGeometry x="1495" y="650" width="100" height="40" as="geometry" />
        </mxCell>
        <mxCell id="b5X4EiwwMwYe8SFA5KDC-35" value="&lt;font style=&quot;font-size: 8px&quot;&gt;Codice&lt;/font&gt;" style="text;html=1;strokeColor=none;fillColor=none;align=right;verticalAlign=middle;whiteSpace=wrap;rounded=0;fontFamily=Arial;" parent="1" vertex="1">
          <mxGeometry x="1205.68" y="175" width="30" height="10" as="geometry" />
        </mxCell>
        <mxCell id="b5X4EiwwMwYe8SFA5KDC-36" style="edgeStyle=orthogonalEdgeStyle;rounded=0;orthogonalLoop=1;jettySize=auto;html=1;entryX=-0.004;entryY=0.03;entryDx=0;entryDy=0;entryPerimeter=0;fontFamily=Arial;endArrow=none;endFill=0;strokeWidth=1;" parent="1" source="b5X4EiwwMwYe8SFA5KDC-37" edge="1">
          <mxGeometry relative="1" as="geometry">
            <mxPoint x="1280" y="182.40000000000003" as="targetPoint" />
          </mxGeometry>
        </mxCell>
        <mxCell id="b5X4EiwwMwYe8SFA5KDC-37" value="" style="ellipse;whiteSpace=wrap;html=1;aspect=fixed;fontFamily=Arial;strokeWidth=1;fillColor=#000000;" parent="1" vertex="1">
          <mxGeometry x="1235.68" y="180" width="5" height="5" as="geometry" />
        </mxCell>
        <mxCell id="b5X4EiwwMwYe8SFA5KDC-41" value="&lt;span style=&quot;font-size: 8px&quot;&gt;Nome&lt;/span&gt;" style="text;html=1;strokeColor=none;fillColor=none;align=right;verticalAlign=middle;whiteSpace=wrap;rounded=0;fontFamily=Arial;" parent="1" vertex="1">
          <mxGeometry x="1205.68" y="182.5" width="30" height="10" as="geometry" />
        </mxCell>
        <mxCell id="b5X4EiwwMwYe8SFA5KDC-42" style="edgeStyle=orthogonalEdgeStyle;rounded=0;orthogonalLoop=1;jettySize=auto;html=1;entryX=-0.004;entryY=0.03;entryDx=0;entryDy=0;entryPerimeter=0;fontFamily=Arial;endArrow=none;endFill=0;strokeWidth=1;" parent="1" source="b5X4EiwwMwYe8SFA5KDC-43" edge="1">
          <mxGeometry relative="1" as="geometry">
            <mxPoint x="1280" y="189.90000000000003" as="targetPoint" />
          </mxGeometry>
        </mxCell>
        <mxCell id="b5X4EiwwMwYe8SFA5KDC-43" value="" style="ellipse;whiteSpace=wrap;html=1;aspect=fixed;fontFamily=Arial;strokeWidth=1;fillColor=#FFFFFF;" parent="1" vertex="1">
          <mxGeometry x="1235.68" y="187.5" width="5" height="5" as="geometry" />
        </mxCell>
        <mxCell id="b5X4EiwwMwYe8SFA5KDC-44" value="&lt;font style=&quot;font-size: 8px&quot;&gt;Cognome&lt;/font&gt;" style="text;html=1;strokeColor=none;fillColor=none;align=right;verticalAlign=middle;whiteSpace=wrap;rounded=0;fontFamily=Arial;" parent="1" vertex="1">
          <mxGeometry x="1200" y="190" width="35.68" height="10" as="geometry" />
        </mxCell>
        <mxCell id="b5X4EiwwMwYe8SFA5KDC-45" style="edgeStyle=orthogonalEdgeStyle;rounded=0;orthogonalLoop=1;jettySize=auto;html=1;entryX=-0.004;entryY=0.03;entryDx=0;entryDy=0;entryPerimeter=0;fontFamily=Arial;endArrow=none;endFill=0;strokeWidth=1;" parent="1" source="b5X4EiwwMwYe8SFA5KDC-46" edge="1">
          <mxGeometry relative="1" as="geometry">
            <mxPoint x="1280" y="197.40000000000003" as="targetPoint" />
          </mxGeometry>
        </mxCell>
        <mxCell id="b5X4EiwwMwYe8SFA5KDC-46" value="" style="ellipse;whiteSpace=wrap;html=1;aspect=fixed;fontFamily=Arial;strokeWidth=1;fillColor=#FFFFFF;" parent="1" vertex="1">
          <mxGeometry x="1235.68" y="195" width="5" height="5" as="geometry" />
        </mxCell>
        <mxCell id="b5X4EiwwMwYe8SFA5KDC-47" value="&lt;font style=&quot;font-size: 8px&quot;&gt;Codice fiscale&lt;/font&gt;" style="text;html=1;strokeColor=none;fillColor=none;align=right;verticalAlign=middle;whiteSpace=wrap;rounded=0;fontFamily=Arial;" parent="1" vertex="1">
          <mxGeometry x="1180" y="197.5" width="55.68" height="10" as="geometry" />
        </mxCell>
        <mxCell id="b5X4EiwwMwYe8SFA5KDC-48" style="edgeStyle=orthogonalEdgeStyle;rounded=0;orthogonalLoop=1;jettySize=auto;html=1;entryX=-0.004;entryY=0.03;entryDx=0;entryDy=0;entryPerimeter=0;fontFamily=Arial;endArrow=none;endFill=0;strokeWidth=1;" parent="1" source="b5X4EiwwMwYe8SFA5KDC-49" edge="1">
          <mxGeometry relative="1" as="geometry">
            <mxPoint x="1280" y="204.90000000000003" as="targetPoint" />
          </mxGeometry>
        </mxCell>
        <mxCell id="b5X4EiwwMwYe8SFA5KDC-49" value="" style="ellipse;whiteSpace=wrap;html=1;aspect=fixed;fontFamily=Arial;strokeWidth=1;fillColor=#FFFFFF;" parent="1" vertex="1">
          <mxGeometry x="1235.68" y="202.5" width="5" height="5" as="geometry" />
        </mxCell>
        <mxCell id="b5X4EiwwMwYe8SFA5KDC-50" value="&lt;font style=&quot;font-size: 8px&quot;&gt;Data nascita&lt;/font&gt;" style="text;html=1;strokeColor=none;fillColor=none;align=right;verticalAlign=middle;whiteSpace=wrap;rounded=0;fontFamily=Arial;" parent="1" vertex="1">
          <mxGeometry x="1180" y="205" width="55.68" height="10" as="geometry" />
        </mxCell>
        <mxCell id="b5X4EiwwMwYe8SFA5KDC-51" style="edgeStyle=orthogonalEdgeStyle;rounded=0;orthogonalLoop=1;jettySize=auto;html=1;entryX=-0.004;entryY=0.03;entryDx=0;entryDy=0;entryPerimeter=0;fontFamily=Arial;endArrow=none;endFill=0;strokeWidth=1;" parent="1" source="b5X4EiwwMwYe8SFA5KDC-52" edge="1">
          <mxGeometry relative="1" as="geometry">
            <mxPoint x="1280" y="212.40000000000003" as="targetPoint" />
          </mxGeometry>
        </mxCell>
        <mxCell id="b5X4EiwwMwYe8SFA5KDC-52" value="" style="ellipse;whiteSpace=wrap;html=1;aspect=fixed;fontFamily=Arial;strokeWidth=1;fillColor=#FFFFFF;" parent="1" vertex="1">
          <mxGeometry x="1235.68" y="210" width="5" height="5" as="geometry" />
        </mxCell>
        <mxCell id="b5X4EiwwMwYe8SFA5KDC-54" style="edgeStyle=orthogonalEdgeStyle;rounded=0;orthogonalLoop=1;jettySize=auto;html=1;entryX=-0.004;entryY=0.03;entryDx=0;entryDy=0;entryPerimeter=0;fontFamily=Arial;endArrow=none;endFill=0;strokeWidth=1;exitX=1;exitY=0.5;exitDx=0;exitDy=0;" parent="1" source="b5X4EiwwMwYe8SFA5KDC-66" edge="1">
          <mxGeometry relative="1" as="geometry">
            <mxPoint x="1280" y="219.90000000000003" as="targetPoint" />
            <mxPoint x="1172.5" y="220" as="sourcePoint" />
            <Array as="points">
              <mxPoint x="1226" y="220.5" />
            </Array>
          </mxGeometry>
        </mxCell>
        <mxCell id="b5X4EiwwMwYe8SFA5KDC-56" value="&lt;font style=&quot;font-size: 8px&quot;&gt;Stipendio lordo&lt;/font&gt;" style="text;html=1;strokeColor=none;fillColor=none;align=right;verticalAlign=middle;whiteSpace=wrap;rounded=0;fontFamily=Arial;" parent="1" vertex="1">
          <mxGeometry x="1180" y="220" width="55.68" height="10" as="geometry" />
        </mxCell>
        <mxCell id="b5X4EiwwMwYe8SFA5KDC-57" style="edgeStyle=orthogonalEdgeStyle;rounded=0;orthogonalLoop=1;jettySize=auto;html=1;entryX=-0.004;entryY=0.03;entryDx=0;entryDy=0;entryPerimeter=0;fontFamily=Arial;endArrow=none;endFill=0;strokeWidth=1;" parent="1" source="b5X4EiwwMwYe8SFA5KDC-58" edge="1">
          <mxGeometry relative="1" as="geometry">
            <mxPoint x="1280" y="227.40000000000003" as="targetPoint" />
          </mxGeometry>
        </mxCell>
        <mxCell id="b5X4EiwwMwYe8SFA5KDC-58" value="" style="ellipse;whiteSpace=wrap;html=1;aspect=fixed;fontFamily=Arial;strokeWidth=1;fillColor=#FFFFFF;" parent="1" vertex="1">
          <mxGeometry x="1235.68" y="225" width="5" height="5" as="geometry" />
        </mxCell>
        <mxCell id="b5X4EiwwMwYe8SFA5KDC-59" value="&lt;font style=&quot;font-size: 8px&quot;&gt;Data inizio rapporto&lt;/font&gt;" style="text;html=1;strokeColor=none;fillColor=none;align=right;verticalAlign=middle;whiteSpace=wrap;rounded=0;fontFamily=Arial;" parent="1" vertex="1">
          <mxGeometry x="1160.68" y="227.5" width="75" height="10" as="geometry" />
        </mxCell>
        <mxCell id="b5X4EiwwMwYe8SFA5KDC-60" style="edgeStyle=orthogonalEdgeStyle;rounded=0;orthogonalLoop=1;jettySize=auto;html=1;entryX=-0.004;entryY=0.03;entryDx=0;entryDy=0;entryPerimeter=0;fontFamily=Arial;endArrow=none;endFill=0;strokeWidth=1;" parent="1" source="b5X4EiwwMwYe8SFA5KDC-61" edge="1">
          <mxGeometry relative="1" as="geometry">
            <mxPoint x="1280" y="234.90000000000003" as="targetPoint" />
          </mxGeometry>
        </mxCell>
        <mxCell id="b5X4EiwwMwYe8SFA5KDC-61" value="" style="ellipse;whiteSpace=wrap;html=1;aspect=fixed;fontFamily=Arial;strokeWidth=1;fillColor=#FFFFFF;" parent="1" vertex="1">
          <mxGeometry x="1235.68" y="232.5" width="5" height="5" as="geometry" />
        </mxCell>
        <mxCell id="b5X4EiwwMwYe8SFA5KDC-62" value="&lt;font style=&quot;font-size: 8px&quot;&gt;Data fine rapporto (0,1)&lt;/font&gt;" style="text;html=1;strokeColor=none;fillColor=none;align=right;verticalAlign=middle;whiteSpace=wrap;rounded=0;fontFamily=Arial;" parent="1" vertex="1">
          <mxGeometry x="1150" y="237.5" width="85.68" height="5" as="geometry" />
        </mxCell>
        <mxCell id="b5X4EiwwMwYe8SFA5KDC-63" style="edgeStyle=orthogonalEdgeStyle;rounded=0;orthogonalLoop=1;jettySize=auto;html=1;entryX=-0.004;entryY=0.03;entryDx=0;entryDy=0;entryPerimeter=0;fontFamily=Arial;endArrow=none;endFill=0;strokeWidth=1;" parent="1" source="b5X4EiwwMwYe8SFA5KDC-64" edge="1">
          <mxGeometry relative="1" as="geometry">
            <mxPoint x="1280" y="242.40000000000003" as="targetPoint" />
          </mxGeometry>
        </mxCell>
        <mxCell id="b5X4EiwwMwYe8SFA5KDC-64" value="" style="ellipse;whiteSpace=wrap;html=1;aspect=fixed;fontFamily=Arial;strokeWidth=1;fillColor=#FFFFFF;" parent="1" vertex="1">
          <mxGeometry x="1235.68" y="240" width="5" height="5" as="geometry" />
        </mxCell>
        <mxCell id="b5X4EiwwMwYe8SFA5KDC-66" value="Indirizzo" style="ellipse;whiteSpace=wrap;html=1;fontFamily=Arial;strokeWidth=1;fillColor=none;align=center;fontSize=8;" parent="1" vertex="1">
          <mxGeometry x="1140" y="212.5" width="40" height="15" as="geometry" />
        </mxCell>
        <mxCell id="b5X4EiwwMwYe8SFA5KDC-67" value="&lt;font style=&quot;font-size: 8px&quot;&gt;Via&lt;/font&gt;" style="text;html=1;strokeColor=none;fillColor=none;align=center;verticalAlign=middle;whiteSpace=wrap;rounded=0;fontFamily=Arial;" parent="1" vertex="1">
          <mxGeometry x="1170" y="194.4" width="10" height="5" as="geometry" />
        </mxCell>
        <mxCell id="b5X4EiwwMwYe8SFA5KDC-68" style="edgeStyle=orthogonalEdgeStyle;rounded=0;orthogonalLoop=1;jettySize=auto;html=1;entryX=0.749;entryY=0.04;entryDx=0;entryDy=0;fontFamily=Arial;endArrow=none;endFill=0;strokeWidth=1;exitX=0.5;exitY=1;exitDx=0;exitDy=0;entryPerimeter=0;" parent="1" source="b5X4EiwwMwYe8SFA5KDC-69" edge="1">
          <mxGeometry relative="1" as="geometry">
            <mxPoint x="1174.96" y="215.00000000000003" as="targetPoint" />
            <Array as="points">
              <mxPoint x="1175" y="209.4" />
              <mxPoint x="1175" y="209.4" />
            </Array>
          </mxGeometry>
        </mxCell>
        <mxCell id="b5X4EiwwMwYe8SFA5KDC-69" value="" style="ellipse;whiteSpace=wrap;html=1;aspect=fixed;fontFamily=Arial;strokeWidth=1;fillColor=#FFFFFF;" parent="1" vertex="1">
          <mxGeometry x="1172.5000000000002" y="204.4" width="5" height="5" as="geometry" />
        </mxCell>
        <mxCell id="b5X4EiwwMwYe8SFA5KDC-73" value="&lt;font style=&quot;font-size: 8px&quot;&gt;CAP&lt;/font&gt;" style="text;html=1;strokeColor=none;fillColor=none;align=center;verticalAlign=middle;whiteSpace=wrap;rounded=0;fontFamily=Arial;" parent="1" vertex="1">
          <mxGeometry x="1140" y="195" width="10" height="5" as="geometry" />
        </mxCell>
        <mxCell id="b5X4EiwwMwYe8SFA5KDC-74" style="edgeStyle=orthogonalEdgeStyle;rounded=0;orthogonalLoop=1;jettySize=auto;html=1;entryX=0.749;entryY=0.04;entryDx=0;entryDy=0;fontFamily=Arial;endArrow=none;endFill=0;strokeWidth=1;exitX=0.5;exitY=1;exitDx=0;exitDy=0;entryPerimeter=0;" parent="1" source="b5X4EiwwMwYe8SFA5KDC-75" edge="1">
          <mxGeometry relative="1" as="geometry">
            <mxPoint x="1144.96" y="215.60000000000002" as="targetPoint" />
            <Array as="points">
              <mxPoint x="1145" y="210" />
              <mxPoint x="1145" y="210" />
            </Array>
          </mxGeometry>
        </mxCell>
        <mxCell id="b5X4EiwwMwYe8SFA5KDC-75" value="" style="ellipse;whiteSpace=wrap;html=1;aspect=fixed;fontFamily=Arial;strokeWidth=1;fillColor=#FFFFFF;" parent="1" vertex="1">
          <mxGeometry x="1142.5000000000002" y="205" width="5" height="5" as="geometry" />
        </mxCell>
        <mxCell id="b5X4EiwwMwYe8SFA5KDC-76" value="&lt;font style=&quot;font-size: 8px&quot;&gt;CittÃ &lt;/font&gt;" style="text;html=1;strokeColor=none;fillColor=none;align=center;verticalAlign=middle;whiteSpace=wrap;rounded=0;fontFamily=Arial;" parent="1" vertex="1">
          <mxGeometry x="1150.68" y="182.5" width="10" height="5" as="geometry" />
        </mxCell>
        <mxCell id="b5X4EiwwMwYe8SFA5KDC-77" style="edgeStyle=orthogonalEdgeStyle;rounded=0;orthogonalLoop=1;jettySize=auto;html=1;entryX=0.749;entryY=0.04;entryDx=0;entryDy=0;fontFamily=Arial;endArrow=none;endFill=0;strokeWidth=1;exitX=0.5;exitY=1;exitDx=0;exitDy=0;entryPerimeter=0;" parent="1" source="b5X4EiwwMwYe8SFA5KDC-78" edge="1">
          <mxGeometry relative="1" as="geometry">
            <mxPoint x="1155.64" y="212.50000000000003" as="targetPoint" />
            <Array as="points">
              <mxPoint x="1155.68" y="206.9" />
              <mxPoint x="1155.68" y="206.9" />
            </Array>
          </mxGeometry>
        </mxCell>
        <mxCell id="b5X4EiwwMwYe8SFA5KDC-78" value="" style="ellipse;whiteSpace=wrap;html=1;aspect=fixed;fontFamily=Arial;strokeWidth=1;fillColor=#FFFFFF;" parent="1" vertex="1">
          <mxGeometry x="1153.1800000000003" y="192.5" width="5" height="5" as="geometry" />
        </mxCell>
        <mxCell id="b5X4EiwwMwYe8SFA5KDC-79" value="&lt;font style=&quot;font-size: 8px&quot;&gt;Civico&lt;/font&gt;" style="text;html=1;strokeColor=none;fillColor=none;align=center;verticalAlign=middle;whiteSpace=wrap;rounded=0;fontFamily=Arial;" parent="1" vertex="1">
          <mxGeometry x="1160.68" y="170" width="10" height="5" as="geometry" />
        </mxCell>
        <mxCell id="b5X4EiwwMwYe8SFA5KDC-80" style="edgeStyle=orthogonalEdgeStyle;rounded=0;orthogonalLoop=1;jettySize=auto;html=1;entryX=0.749;entryY=0.04;entryDx=0;entryDy=0;fontFamily=Arial;endArrow=none;endFill=0;strokeWidth=1;exitX=0.5;exitY=1;exitDx=0;exitDy=0;entryPerimeter=0;" parent="1" source="b5X4EiwwMwYe8SFA5KDC-81" edge="1">
          <mxGeometry relative="1" as="geometry">
            <mxPoint x="1166.3200000000002" y="212.50000000000003" as="targetPoint" />
            <Array as="points">
              <mxPoint x="1166.18" y="200.5" />
            </Array>
          </mxGeometry>
        </mxCell>
        <mxCell id="b5X4EiwwMwYe8SFA5KDC-81" value="" style="ellipse;whiteSpace=wrap;html=1;aspect=fixed;fontFamily=Arial;strokeWidth=1;fillColor=#FFFFFF;" parent="1" vertex="1">
          <mxGeometry x="1163.1800000000003" y="180" width="5" height="5" as="geometry" />
        </mxCell>
        <mxCell id="b5X4EiwwMwYe8SFA5KDC-86" value="" style="shape=flexArrow;endArrow=classic;html=1;fontFamily=Arial;fontSize=8;strokeWidth=1;endWidth=7.7852348993288585;endSize=3.5798657718120808;fillColor=#000000;" parent="1" edge="1">
          <mxGeometry width="50" height="50" relative="1" as="geometry">
            <mxPoint x="1339.77" y="162.5" as="sourcePoint" />
            <mxPoint x="1339.77" y="182.5" as="targetPoint" />
          </mxGeometry>
        </mxCell>
        <mxCell id="b5X4EiwwMwYe8SFA5KDC-88" value="" style="shape=flexArrow;endArrow=classic;html=1;fontFamily=Arial;fontSize=8;strokeWidth=1;endWidth=7.7852348993288585;endSize=3.5798657718120808;fillColor=#000000;entryX=0.5;entryY=1;entryDx=0;entryDy=0;" parent="1" target="oi-J7NC_e-j-eJ_lcssu-9" edge="1">
          <mxGeometry width="50" height="50" relative="1" as="geometry">
            <mxPoint x="1340" y="260" as="sourcePoint" />
            <mxPoint x="1334.52" y="280" as="targetPoint" />
          </mxGeometry>
        </mxCell>
        <mxCell id="b5X4EiwwMwYe8SFA5KDC-95" value="&lt;font style=&quot;font-size: 8px&quot;&gt;Numero trattative aperte&lt;/font&gt;" style="text;html=1;strokeColor=none;fillColor=none;align=right;verticalAlign=middle;whiteSpace=wrap;rounded=0;fontFamily=Arial;" parent="1" vertex="1">
          <mxGeometry x="1147.5" y="290" width="90.68" height="5" as="geometry" />
        </mxCell>
        <mxCell id="b5X4EiwwMwYe8SFA5KDC-96" style="edgeStyle=orthogonalEdgeStyle;rounded=0;orthogonalLoop=1;jettySize=auto;html=1;fontFamily=Arial;endArrow=none;endFill=0;strokeWidth=1;" parent="1" source="b5X4EiwwMwYe8SFA5KDC-97" edge="1">
          <mxGeometry relative="1" as="geometry">
            <mxPoint x="1175" y="320" as="targetPoint" />
            <Array as="points">
              <mxPoint x="1175" y="305" />
              <mxPoint x="1175" y="305" />
            </Array>
          </mxGeometry>
        </mxCell>
        <mxCell id="b5X4EiwwMwYe8SFA5KDC-97" value="" style="ellipse;whiteSpace=wrap;html=1;aspect=fixed;fontFamily=Arial;strokeWidth=1;fillColor=#FFFFFF;" parent="1" vertex="1">
          <mxGeometry x="1172.5" y="300" width="5" height="5" as="geometry" />
        </mxCell>
        <mxCell id="b5X4EiwwMwYe8SFA5KDC-98" value="&lt;font style=&quot;font-size: 8px&quot;&gt;Numero consulenze pianificate&lt;/font&gt;" style="text;html=1;strokeColor=none;fillColor=none;align=right;verticalAlign=middle;whiteSpace=wrap;rounded=0;fontFamily=Arial;" parent="1" vertex="1">
          <mxGeometry x="1280" y="290" width="120" height="5" as="geometry" />
        </mxCell>
        <mxCell id="b5X4EiwwMwYe8SFA5KDC-99" style="edgeStyle=orthogonalEdgeStyle;rounded=0;orthogonalLoop=1;jettySize=auto;html=1;fontFamily=Arial;endArrow=none;endFill=0;strokeWidth=1;" parent="1" source="b5X4EiwwMwYe8SFA5KDC-100" edge="1">
          <mxGeometry relative="1" as="geometry">
            <mxPoint x="1307.5" y="320" as="targetPoint" />
            <Array as="points">
              <mxPoint x="1307.5" y="305" />
              <mxPoint x="1307.5" y="305" />
            </Array>
          </mxGeometry>
        </mxCell>
        <mxCell id="b5X4EiwwMwYe8SFA5KDC-100" value="" style="ellipse;whiteSpace=wrap;html=1;aspect=fixed;fontFamily=Arial;strokeWidth=1;fillColor=#FFFFFF;" parent="1" vertex="1">
          <mxGeometry x="1305" y="300" width="5" height="5" as="geometry" />
        </mxCell>
        <mxCell id="b5X4EiwwMwYe8SFA5KDC-101" value="&lt;span style=&quot;font-size: 8px&quot;&gt;Livello&lt;/span&gt;" style="text;html=1;strokeColor=none;fillColor=none;align=center;verticalAlign=middle;whiteSpace=wrap;rounded=0;fontFamily=Arial;" parent="1" vertex="1">
          <mxGeometry x="1358.58" y="80" width="27.84" height="5" as="geometry" />
        </mxCell>
        <mxCell id="b5X4EiwwMwYe8SFA5KDC-105" style="edgeStyle=orthogonalEdgeStyle;rounded=0;orthogonalLoop=1;jettySize=auto;html=1;entryX=0.275;entryY=0.002;entryDx=0;entryDy=0;entryPerimeter=0;fontFamily=Arial;fontSize=8;endArrow=none;endFill=0;strokeWidth=1;fillColor=#000000;" parent="1" source="b5X4EiwwMwYe8SFA5KDC-103" target="oi-J7NC_e-j-eJ_lcssu-19" edge="1">
          <mxGeometry relative="1" as="geometry">
            <Array as="points">
              <mxPoint x="1373" y="110" />
              <mxPoint x="1373" y="110" />
            </Array>
          </mxGeometry>
        </mxCell>
        <mxCell id="b5X4EiwwMwYe8SFA5KDC-103" value="" style="ellipse;whiteSpace=wrap;html=1;aspect=fixed;fontFamily=Arial;strokeWidth=1;fillColor=#FFFFFF;" parent="1" vertex="1">
          <mxGeometry x="1370" y="90" width="5" height="5" as="geometry" />
        </mxCell>
        <mxCell id="b5X4EiwwMwYe8SFA5KDC-108" value="&lt;span style=&quot;font-size: 8px&quot;&gt;Partita IVA&lt;/span&gt;" style="text;html=1;strokeColor=none;fillColor=none;align=center;verticalAlign=middle;whiteSpace=wrap;rounded=0;fontFamily=Arial;" parent="1" vertex="1">
          <mxGeometry x="1286.79" y="80" width="41.42" height="5" as="geometry" />
        </mxCell>
        <mxCell id="b5X4EiwwMwYe8SFA5KDC-109" style="edgeStyle=orthogonalEdgeStyle;rounded=0;orthogonalLoop=1;jettySize=auto;html=1;entryX=0.275;entryY=0.002;entryDx=0;entryDy=0;entryPerimeter=0;fontFamily=Arial;fontSize=8;endArrow=none;endFill=0;strokeWidth=1;fillColor=#000000;" parent="1" source="b5X4EiwwMwYe8SFA5KDC-110" edge="1">
          <mxGeometry relative="1" as="geometry">
            <mxPoint x="1307.5" y="110.00000000000001" as="targetPoint" />
            <Array as="points">
              <mxPoint x="1308" y="109.92" />
              <mxPoint x="1308" y="109.92" />
            </Array>
          </mxGeometry>
        </mxCell>
        <mxCell id="b5X4EiwwMwYe8SFA5KDC-110" value="" style="ellipse;whiteSpace=wrap;html=1;aspect=fixed;fontFamily=Arial;strokeWidth=1;fillColor=#FFFFFF;" parent="1" vertex="1">
          <mxGeometry x="1305" y="89.92" width="5" height="5" as="geometry" />
        </mxCell>
        <mxCell id="b5X4EiwwMwYe8SFA5KDC-115" style="edgeStyle=orthogonalEdgeStyle;rounded=0;orthogonalLoop=1;jettySize=auto;html=1;entryX=0.067;entryY=0.994;entryDx=0;entryDy=0;entryPerimeter=0;fontFamily=Arial;fontSize=8;endArrow=none;endFill=0;strokeWidth=1;fillColor=#000000;" parent="1" source="b5X4EiwwMwYe8SFA5KDC-113" target="oi-J7NC_e-j-eJ_lcssu-11" edge="1">
          <mxGeometry relative="1" as="geometry">
            <Array as="points">
              <mxPoint x="1482" y="140" />
              <mxPoint x="1483" y="140" />
            </Array>
          </mxGeometry>
        </mxCell>
        <mxCell id="b5X4EiwwMwYe8SFA5KDC-113" value="" style="ellipse;whiteSpace=wrap;html=1;aspect=fixed;fontFamily=Arial;strokeWidth=1;fillColor=#000000;" parent="1" vertex="1">
          <mxGeometry x="1480" y="155" width="5" height="5" as="geometry" />
        </mxCell>
        <mxCell id="b5X4EiwwMwYe8SFA5KDC-116" value="&lt;span style=&quot;font-size: 8px&quot;&gt;CittÃ &lt;/span&gt;" style="text;html=1;strokeColor=none;fillColor=none;align=right;verticalAlign=middle;whiteSpace=wrap;rounded=0;fontFamily=Arial;" parent="1" vertex="1">
          <mxGeometry x="1465" y="160" width="30" height="10" as="geometry" />
        </mxCell>
        <mxCell id="b5X4EiwwMwYe8SFA5KDC-122" style="edgeStyle=orthogonalEdgeStyle;rounded=0;orthogonalLoop=1;jettySize=auto;html=1;entryX=0.289;entryY=0.995;entryDx=0;entryDy=0;entryPerimeter=0;fontFamily=Arial;fontSize=8;endArrow=none;endFill=0;strokeWidth=1;fillColor=#000000;" parent="1" source="b5X4EiwwMwYe8SFA5KDC-120" target="oi-J7NC_e-j-eJ_lcssu-11" edge="1">
          <mxGeometry relative="1" as="geometry" />
        </mxCell>
        <mxCell id="b5X4EiwwMwYe8SFA5KDC-123" style="edgeStyle=orthogonalEdgeStyle;rounded=0;orthogonalLoop=1;jettySize=auto;html=1;entryX=1.005;entryY=0.363;entryDx=0;entryDy=0;entryPerimeter=0;fontFamily=Arial;fontSize=8;endArrow=none;endFill=0;strokeWidth=1;fillColor=#000000;" parent="1" source="b5X4EiwwMwYe8SFA5KDC-120" target="oi-J7NC_e-j-eJ_lcssu-9" edge="1">
          <mxGeometry relative="1" as="geometry" />
        </mxCell>
        <mxCell id="b5X4EiwwMwYe8SFA5KDC-120" value="&lt;font style=&quot;font-size: 8px&quot;&gt;Sede di lavoro&lt;/font&gt;" style="shape=rhombus;perimeter=rhombusPerimeter;whiteSpace=wrap;html=1;align=center;fontFamily=Arial;fontSize=8;strokeWidth=1;fillColor=none;" parent="1" vertex="1">
          <mxGeometry x="1470" y="193.45" width="77.5" height="23.1" as="geometry" />
        </mxCell>
        <mxCell id="b5X4EiwwMwYe8SFA5KDC-125" style="edgeStyle=orthogonalEdgeStyle;rounded=0;orthogonalLoop=1;jettySize=auto;html=1;entryX=0.677;entryY=0;entryDx=0;entryDy=0;entryPerimeter=0;fontFamily=Arial;fontSize=8;endArrow=none;endFill=0;strokeWidth=1;fillColor=#000000;" parent="1" source="b5X4EiwwMwYe8SFA5KDC-121" target="oi-J7NC_e-j-eJ_lcssu-8" edge="1">
          <mxGeometry relative="1" as="geometry" />
        </mxCell>
        <mxCell id="b5X4EiwwMwYe8SFA5KDC-127" style="edgeStyle=orthogonalEdgeStyle;rounded=0;orthogonalLoop=1;jettySize=auto;html=1;entryX=0.67;entryY=0.986;entryDx=0;entryDy=0;entryPerimeter=0;fontFamily=Arial;fontSize=8;endArrow=none;endFill=0;strokeWidth=1;fillColor=#000000;" parent="1" source="b5X4EiwwMwYe8SFA5KDC-121" target="oi-J7NC_e-j-eJ_lcssu-11" edge="1">
          <mxGeometry relative="1" as="geometry" />
        </mxCell>
        <mxCell id="b5X4EiwwMwYe8SFA5KDC-121" value="&lt;font style=&quot;font-size: 8px&quot;&gt;Supervisione&lt;/font&gt;" style="shape=rhombus;perimeter=rhombusPerimeter;whiteSpace=wrap;html=1;align=center;fontFamily=Arial;fontSize=8;strokeWidth=1;fillColor=none;" parent="1" vertex="1">
          <mxGeometry x="1517.5" y="212.5" width="77.5" height="23.1" as="geometry" />
        </mxCell>
        <mxCell id="b5X4EiwwMwYe8SFA5KDC-128" value="&lt;span style=&quot;font-size: 8px&quot;&gt;(1,1)&lt;/span&gt;" style="text;html=1;strokeColor=none;fillColor=none;align=right;verticalAlign=middle;whiteSpace=wrap;rounded=0;fontFamily=Arial;" parent="1" vertex="1">
          <mxGeometry x="1400" y="190" width="20" height="10" as="geometry" />
        </mxCell>
        <mxCell id="b5X4EiwwMwYe8SFA5KDC-130" value="&lt;span style=&quot;font-size: 8px&quot;&gt;(1,N)&lt;/span&gt;" style="text;html=1;strokeColor=none;fillColor=none;align=right;verticalAlign=middle;whiteSpace=wrap;rounded=0;fontFamily=Arial;" parent="1" vertex="1">
          <mxGeometry x="1510" y="145" width="20" as="geometry" />
        </mxCell>
        <mxCell id="b5X4EiwwMwYe8SFA5KDC-131" value="&lt;span style=&quot;font-size: 8px&quot;&gt;(1,1)&lt;/span&gt;" style="text;html=1;strokeColor=none;fillColor=none;align=right;verticalAlign=middle;whiteSpace=wrap;rounded=0;fontFamily=Arial;" parent="1" vertex="1">
          <mxGeometry x="1560" y="140" width="20" height="10" as="geometry" />
        </mxCell>
        <mxCell id="b5X4EiwwMwYe8SFA5KDC-134" value="&lt;span style=&quot;font-size: 8px&quot;&gt;(1,1)&lt;/span&gt;" style="text;html=1;strokeColor=none;fillColor=none;align=right;verticalAlign=middle;whiteSpace=wrap;rounded=0;fontFamily=Arial;" parent="1" vertex="1">
          <mxGeometry x="1560" y="305" width="20" height="10" as="geometry" />
        </mxCell>
        <mxCell id="b5X4EiwwMwYe8SFA5KDC-143" style="edgeStyle=orthogonalEdgeStyle;rounded=0;orthogonalLoop=1;jettySize=auto;html=1;entryX=0.5;entryY=0;entryDx=0;entryDy=0;fontFamily=Arial;fontSize=8;endArrow=none;endFill=0;strokeWidth=1;fillColor=#000000;" parent="1" source="b5X4EiwwMwYe8SFA5KDC-136" target="oi-J7NC_e-j-eJ_lcssu-4" edge="1">
          <mxGeometry relative="1" as="geometry">
            <Array as="points">
              <mxPoint x="1406" y="545" />
              <mxPoint x="1405" y="545" />
            </Array>
          </mxGeometry>
        </mxCell>
        <mxCell id="b5X4EiwwMwYe8SFA5KDC-144" style="edgeStyle=orthogonalEdgeStyle;rounded=0;orthogonalLoop=1;jettySize=auto;html=1;entryX=0.5;entryY=1;entryDx=0;entryDy=0;fontFamily=Arial;fontSize=8;endArrow=none;endFill=0;strokeWidth=1;fillColor=#000000;" parent="1" source="b5X4EiwwMwYe8SFA5KDC-136" target="oi-J7NC_e-j-eJ_lcssu-7" edge="1">
          <mxGeometry relative="1" as="geometry" />
        </mxCell>
        <mxCell id="b5X4EiwwMwYe8SFA5KDC-136" value="&lt;font style=&quot;font-size: 8px&quot;&gt;Sviluppo&lt;/font&gt;" style="shape=rhombus;perimeter=rhombusPerimeter;whiteSpace=wrap;html=1;align=center;fontFamily=Arial;fontSize=8;strokeWidth=1;fillColor=none;" parent="1" vertex="1">
          <mxGeometry x="1366.25" y="476.9" width="77.5" height="23.1" as="geometry" />
        </mxCell>
        <mxCell id="b5X4EiwwMwYe8SFA5KDC-137" value="" style="endArrow=none;html=1;fontFamily=Arial;fontSize=8;strokeWidth=1;fillColor=#000000;exitX=1;exitY=0;exitDx=0;exitDy=0;entryX=0;entryY=0.5;entryDx=0;entryDy=0;" parent="1" source="oi-J7NC_e-j-eJ_lcssu-4" target="b5X4EiwwMwYe8SFA5KDC-248" edge="1">
          <mxGeometry width="50" height="50" relative="1" as="geometry">
            <mxPoint x="1490" y="460" as="sourcePoint" />
            <mxPoint x="1590" y="530" as="targetPoint" />
            <Array as="points">
              <mxPoint x="1465" y="522" />
            </Array>
          </mxGeometry>
        </mxCell>
        <mxCell id="b5X4EiwwMwYe8SFA5KDC-142" value="" style="endArrow=none;html=1;fontFamily=Arial;fontSize=8;strokeWidth=1;fillColor=#000000;entryX=0;entryY=0.5;entryDx=0;entryDy=0;" parent="1" target="b5X4EiwwMwYe8SFA5KDC-246" edge="1">
          <mxGeometry width="50" height="50" relative="1" as="geometry">
            <mxPoint x="1443.75" y="590" as="sourcePoint" />
            <mxPoint x="1560" y="500" as="targetPoint" />
            <Array as="points">
              <mxPoint x="1444" y="498" />
            </Array>
          </mxGeometry>
        </mxCell>
        <mxCell id="b5X4EiwwMwYe8SFA5KDC-146" value="&lt;span style=&quot;font-size: 8px&quot;&gt;(1,N)&lt;/span&gt;" style="text;html=1;strokeColor=none;fillColor=none;align=right;verticalAlign=middle;whiteSpace=wrap;rounded=0;fontFamily=Arial;" parent="1" vertex="1">
          <mxGeometry x="1385" y="385" width="20" as="geometry" />
        </mxCell>
        <mxCell id="b5X4EiwwMwYe8SFA5KDC-147" value="&lt;span style=&quot;font-size: 8px&quot;&gt;(1,N)&lt;/span&gt;" style="text;html=1;strokeColor=none;fillColor=none;align=right;verticalAlign=middle;whiteSpace=wrap;rounded=0;fontFamily=Arial;" parent="1" vertex="1">
          <mxGeometry x="1385" y="580" width="20" as="geometry" />
        </mxCell>
        <mxCell id="b5X4EiwwMwYe8SFA5KDC-149" value="&lt;span style=&quot;font-size: 8px&quot;&gt;(0,N)&lt;/span&gt;" style="text;html=1;strokeColor=none;fillColor=none;align=right;verticalAlign=middle;whiteSpace=wrap;rounded=0;fontFamily=Arial;" parent="1" vertex="1">
          <mxGeometry x="1443.75" y="575" width="20" height="10" as="geometry" />
        </mxCell>
        <mxCell id="b5X4EiwwMwYe8SFA5KDC-150" value="&lt;span style=&quot;font-size: 8px&quot;&gt;(0,N)&lt;/span&gt;" style="text;html=1;strokeColor=none;fillColor=none;align=right;verticalAlign=middle;whiteSpace=wrap;rounded=0;fontFamily=Arial;" parent="1" vertex="1">
          <mxGeometry x="1420" y="575" width="20" height="10" as="geometry" />
        </mxCell>
        <mxCell id="b5X4EiwwMwYe8SFA5KDC-151" value="" style="shape=flexArrow;endArrow=classic;html=1;fontFamily=Arial;fontSize=8;strokeWidth=1;endWidth=7.7852348993288585;endSize=3.5798657718120808;fillColor=#000000;entryX=0.5;entryY=1;entryDx=0;entryDy=0;" parent="1" edge="1">
          <mxGeometry width="50" height="50" relative="1" as="geometry">
            <mxPoint x="1481.54" y="620.5" as="sourcePoint" />
            <mxPoint x="1465" y="620" as="targetPoint" />
          </mxGeometry>
        </mxCell>
        <mxCell id="b5X4EiwwMwYe8SFA5KDC-156" value="&lt;span style=&quot;font-size: 8px&quot;&gt;Nome&lt;/span&gt;" style="text;html=1;strokeColor=none;fillColor=none;align=center;verticalAlign=middle;whiteSpace=wrap;rounded=0;fontFamily=Arial;" parent="1" vertex="1">
          <mxGeometry x="1324.83" y="550" width="41.42" height="5" as="geometry" />
        </mxCell>
        <mxCell id="b5X4EiwwMwYe8SFA5KDC-157" style="edgeStyle=orthogonalEdgeStyle;rounded=0;orthogonalLoop=1;jettySize=auto;html=1;entryX=0.275;entryY=0.002;entryDx=0;entryDy=0;entryPerimeter=0;fontFamily=Arial;fontSize=8;endArrow=none;endFill=0;strokeWidth=1;fillColor=#000000;" parent="1" source="b5X4EiwwMwYe8SFA5KDC-158" edge="1">
          <mxGeometry relative="1" as="geometry">
            <mxPoint x="1345.54" y="590" as="targetPoint" />
            <Array as="points">
              <mxPoint x="1346.04" y="589.92" />
              <mxPoint x="1346.04" y="589.92" />
            </Array>
          </mxGeometry>
        </mxCell>
        <mxCell id="b5X4EiwwMwYe8SFA5KDC-158" value="" style="ellipse;whiteSpace=wrap;html=1;aspect=fixed;fontFamily=Arial;strokeWidth=1;fillColor=#000000;" parent="1" vertex="1">
          <mxGeometry x="1343.04" y="560" width="5" height="5" as="geometry" />
        </mxCell>
        <mxCell id="b5X4EiwwMwYe8SFA5KDC-168" value="&lt;font style=&quot;font-size: 7px&quot;&gt;Canone standard&lt;/font&gt;" style="text;html=1;strokeColor=none;fillColor=none;align=left;verticalAlign=middle;whiteSpace=wrap;rounded=0;fontFamily=Arial;fontSize=8;" parent="1" vertex="1">
          <mxGeometry x="1345" y="567.5" width="75" height="5" as="geometry" />
        </mxCell>
        <mxCell id="b5X4EiwwMwYe8SFA5KDC-171" style="edgeStyle=orthogonalEdgeStyle;rounded=0;orthogonalLoop=1;jettySize=auto;html=1;exitX=0.5;exitY=0;exitDx=0;exitDy=0;fontFamily=Arial;fontSize=8;endArrow=none;endFill=0;strokeWidth=1;fillColor=#000000;" parent="1" source="b5X4EiwwMwYe8SFA5KDC-170" edge="1">
          <mxGeometry relative="1" as="geometry">
            <mxPoint x="1355.71" y="590" as="targetPoint" />
          </mxGeometry>
        </mxCell>
        <mxCell id="b5X4EiwwMwYe8SFA5KDC-172" style="edgeStyle=orthogonalEdgeStyle;rounded=0;orthogonalLoop=1;jettySize=auto;html=1;exitX=0.5;exitY=1;exitDx=0;exitDy=0;fontFamily=Arial;fontSize=8;endArrow=none;endFill=0;strokeWidth=1;fillColor=#000000;" parent="1" source="b5X4EiwwMwYe8SFA5KDC-170" edge="1">
          <mxGeometry relative="1" as="geometry">
            <mxPoint x="1355.71" y="590" as="targetPoint" />
          </mxGeometry>
        </mxCell>
        <mxCell id="b5X4EiwwMwYe8SFA5KDC-170" value="" style="ellipse;whiteSpace=wrap;html=1;aspect=fixed;fontFamily=Arial;strokeWidth=1;fillColor=#FFFFFF;" parent="1" vertex="1">
          <mxGeometry x="1353.21" y="575" width="5" height="5" as="geometry" />
        </mxCell>
        <mxCell id="b5X4EiwwMwYe8SFA5KDC-174" style="edgeStyle=orthogonalEdgeStyle;rounded=0;orthogonalLoop=1;jettySize=auto;html=1;entryX=0.5;entryY=1;entryDx=0;entryDy=0;fontFamily=Arial;fontSize=8;endArrow=none;endFill=0;strokeWidth=1;fillColor=#000000;" parent="1" source="b5X4EiwwMwYe8SFA5KDC-173" target="oi-J7NC_e-j-eJ_lcssu-4" edge="1">
          <mxGeometry relative="1" as="geometry">
            <mxPoint x="1405" y="659.22" as="targetPoint" />
          </mxGeometry>
        </mxCell>
        <mxCell id="b5X4EiwwMwYe8SFA5KDC-176" style="edgeStyle=orthogonalEdgeStyle;rounded=0;orthogonalLoop=1;jettySize=auto;html=1;entryX=0.5;entryY=0;entryDx=0;entryDy=0;fontFamily=Arial;fontSize=8;endArrow=none;endFill=0;strokeWidth=1;fillColor=#000000;" parent="1" source="b5X4EiwwMwYe8SFA5KDC-173" target="oi-J7NC_e-j-eJ_lcssu-12" edge="1">
          <mxGeometry relative="1" as="geometry" />
        </mxCell>
        <mxCell id="b5X4EiwwMwYe8SFA5KDC-173" value="&lt;font style=&quot;font-size: 8px&quot;&gt;Rilascio&lt;/font&gt;" style="shape=rhombus;perimeter=rhombusPerimeter;whiteSpace=wrap;html=1;align=center;fontFamily=Arial;fontSize=8;strokeWidth=1;fillColor=none;" parent="1" vertex="1">
          <mxGeometry x="1366.25" y="717.67" width="77.5" height="23.1" as="geometry" />
        </mxCell>
        <mxCell id="b5X4EiwwMwYe8SFA5KDC-177" value="&lt;span style=&quot;font-size: 8px&quot;&gt;Codice&lt;/span&gt;" style="text;html=1;strokeColor=none;fillColor=none;align=left;verticalAlign=middle;whiteSpace=wrap;rounded=0;fontFamily=Arial;" parent="1" vertex="1">
          <mxGeometry x="1499.29" y="795" width="41.42" height="5" as="geometry" />
        </mxCell>
        <mxCell id="b5X4EiwwMwYe8SFA5KDC-181" style="edgeStyle=orthogonalEdgeStyle;rounded=0;orthogonalLoop=1;jettySize=auto;html=1;entryX=1.003;entryY=0.047;entryDx=0;entryDy=0;entryPerimeter=0;fontFamily=Arial;fontSize=8;endArrow=none;endFill=0;strokeWidth=1;fillColor=#000000;" parent="1" source="b5X4EiwwMwYe8SFA5KDC-179" target="oi-J7NC_e-j-eJ_lcssu-12" edge="1">
          <mxGeometry relative="1" as="geometry" />
        </mxCell>
        <mxCell id="b5X4EiwwMwYe8SFA5KDC-179" value="" style="ellipse;whiteSpace=wrap;html=1;aspect=fixed;fontFamily=Arial;strokeWidth=1;fillColor=#000000;" parent="1" vertex="1">
          <mxGeometry x="1494.29" y="800" width="5" height="5" as="geometry" />
        </mxCell>
        <mxCell id="b5X4EiwwMwYe8SFA5KDC-182" value="&lt;span style=&quot;font-size: 8px&quot;&gt;Data rilascio&lt;/span&gt;" style="text;html=1;strokeColor=none;fillColor=none;align=left;verticalAlign=middle;whiteSpace=wrap;rounded=0;fontFamily=Arial;" parent="1" vertex="1">
          <mxGeometry x="1499.29" y="805" width="50.71" height="5" as="geometry" />
        </mxCell>
        <mxCell id="b5X4EiwwMwYe8SFA5KDC-183" style="edgeStyle=orthogonalEdgeStyle;rounded=0;orthogonalLoop=1;jettySize=auto;html=1;entryX=1.003;entryY=0.047;entryDx=0;entryDy=0;entryPerimeter=0;fontFamily=Arial;fontSize=8;endArrow=none;endFill=0;strokeWidth=1;fillColor=#000000;" parent="1" source="b5X4EiwwMwYe8SFA5KDC-184" edge="1">
          <mxGeometry relative="1" as="geometry">
            <mxPoint x="1465.36" y="812.82" as="targetPoint" />
          </mxGeometry>
        </mxCell>
        <mxCell id="b5X4EiwwMwYe8SFA5KDC-184" value="" style="ellipse;whiteSpace=wrap;html=1;aspect=fixed;fontFamily=Arial;strokeWidth=1;fillColor=#FFFFFF;" parent="1" vertex="1">
          <mxGeometry x="1494.29" y="810" width="5" height="5" as="geometry" />
        </mxCell>
        <mxCell id="b5X4EiwwMwYe8SFA5KDC-185" value="&lt;span style=&quot;font-size: 8px&quot;&gt;(1,N)&lt;/span&gt;" style="text;html=1;strokeColor=none;fillColor=none;align=right;verticalAlign=middle;whiteSpace=wrap;rounded=0;fontFamily=Arial;" parent="1" vertex="1">
          <mxGeometry x="1410" y="655" width="20" as="geometry" />
        </mxCell>
        <mxCell id="b5X4EiwwMwYe8SFA5KDC-186" value="&lt;span style=&quot;font-size: 8px&quot;&gt;(1,1)&lt;/span&gt;" style="text;html=1;strokeColor=none;fillColor=none;align=right;verticalAlign=middle;whiteSpace=wrap;rounded=0;fontFamily=Arial;" parent="1" vertex="1">
          <mxGeometry x="1410" y="790" width="20" as="geometry" />
        </mxCell>
        <mxCell id="b5X4EiwwMwYe8SFA5KDC-196" style="edgeStyle=orthogonalEdgeStyle;rounded=0;orthogonalLoop=1;jettySize=auto;html=1;entryX=0.239;entryY=-0.003;entryDx=0;entryDy=0;entryPerimeter=0;fontFamily=Arial;fontSize=8;endArrow=none;endFill=0;strokeWidth=1;fillColor=#000000;" parent="1" source="b5X4EiwwMwYe8SFA5KDC-187" target="oi-J7NC_e-j-eJ_lcssu-13" edge="1">
          <mxGeometry relative="1" as="geometry" />
        </mxCell>
        <mxCell id="b5X4EiwwMwYe8SFA5KDC-198" style="edgeStyle=orthogonalEdgeStyle;rounded=0;orthogonalLoop=1;jettySize=auto;html=1;entryX=0.28;entryY=0.992;entryDx=0;entryDy=0;entryPerimeter=0;fontFamily=Arial;fontSize=8;endArrow=none;endFill=0;strokeWidth=1;fillColor=#000000;" parent="1" source="b5X4EiwwMwYe8SFA5KDC-187" target="oi-J7NC_e-j-eJ_lcssu-12" edge="1">
          <mxGeometry relative="1" as="geometry" />
        </mxCell>
        <mxCell id="b5X4EiwwMwYe8SFA5KDC-187" value="&lt;font style=&quot;font-size: 8px&quot;&gt;Da&lt;/font&gt;" style="shape=rhombus;perimeter=rhombusPerimeter;whiteSpace=wrap;html=1;align=center;fontFamily=Arial;fontSize=8;strokeWidth=1;fillColor=none;" parent="1" vertex="1">
          <mxGeometry x="1358.58" y="890" width="40" height="23.1" as="geometry" />
        </mxCell>
        <mxCell id="b5X4EiwwMwYe8SFA5KDC-195" style="edgeStyle=orthogonalEdgeStyle;rounded=0;orthogonalLoop=1;jettySize=auto;html=1;entryX=0.666;entryY=-0.004;entryDx=0;entryDy=0;entryPerimeter=0;fontFamily=Arial;fontSize=8;endArrow=none;endFill=0;strokeWidth=1;fillColor=#000000;" parent="1" source="b5X4EiwwMwYe8SFA5KDC-188" target="oi-J7NC_e-j-eJ_lcssu-13" edge="1">
          <mxGeometry relative="1" as="geometry" />
        </mxCell>
        <mxCell id="b5X4EiwwMwYe8SFA5KDC-197" style="edgeStyle=orthogonalEdgeStyle;rounded=0;orthogonalLoop=1;jettySize=auto;html=1;entryX=0.71;entryY=0.995;entryDx=0;entryDy=0;entryPerimeter=0;fontFamily=Arial;fontSize=8;endArrow=none;endFill=0;strokeWidth=1;fillColor=#000000;" parent="1" source="b5X4EiwwMwYe8SFA5KDC-188" target="oi-J7NC_e-j-eJ_lcssu-12" edge="1">
          <mxGeometry relative="1" as="geometry" />
        </mxCell>
        <mxCell id="b5X4EiwwMwYe8SFA5KDC-188" value="&lt;font style=&quot;font-size: 8px&quot;&gt;A&lt;/font&gt;" style="shape=rhombus;perimeter=rhombusPerimeter;whiteSpace=wrap;html=1;align=center;fontFamily=Arial;fontSize=8;strokeWidth=1;fillColor=none;" parent="1" vertex="1">
          <mxGeometry x="1410" y="890" width="40" height="23.1" as="geometry" />
        </mxCell>
        <mxCell id="b5X4EiwwMwYe8SFA5KDC-199" value="&lt;span style=&quot;font-size: 8px&quot;&gt;Data aggiornamento&lt;/span&gt;" style="text;html=1;strokeColor=none;fillColor=none;align=left;verticalAlign=middle;whiteSpace=wrap;rounded=0;fontFamily=Arial;" parent="1" vertex="1">
          <mxGeometry x="1503.93" y="950" width="76.07" height="5" as="geometry" />
        </mxCell>
        <mxCell id="b5X4EiwwMwYe8SFA5KDC-200" style="edgeStyle=orthogonalEdgeStyle;rounded=0;orthogonalLoop=1;jettySize=auto;html=1;entryX=1.003;entryY=0.047;entryDx=0;entryDy=0;entryPerimeter=0;fontFamily=Arial;fontSize=8;endArrow=none;endFill=0;strokeWidth=1;fillColor=#000000;" parent="1" source="b5X4EiwwMwYe8SFA5KDC-201" edge="1">
          <mxGeometry relative="1" as="geometry">
            <mxPoint x="1470" y="957.82" as="targetPoint" />
          </mxGeometry>
        </mxCell>
        <mxCell id="b5X4EiwwMwYe8SFA5KDC-201" value="" style="ellipse;whiteSpace=wrap;html=1;aspect=fixed;fontFamily=Arial;strokeWidth=1;fillColor=#FFFFFF;" parent="1" vertex="1">
          <mxGeometry x="1498.93" y="955" width="5" height="5" as="geometry" />
        </mxCell>
        <mxCell id="b5X4EiwwMwYe8SFA5KDC-203" style="edgeStyle=orthogonalEdgeStyle;rounded=0;orthogonalLoop=1;jettySize=auto;html=1;entryX=0;entryY=0.5;entryDx=0;entryDy=0;fontFamily=Arial;fontSize=8;endArrow=none;endFill=0;strokeWidth=1;fillColor=#000000;" parent="1" source="b5X4EiwwMwYe8SFA5KDC-202" target="oi-J7NC_e-j-eJ_lcssu-13" edge="1">
          <mxGeometry relative="1" as="geometry" />
        </mxCell>
        <mxCell id="b5X4EiwwMwYe8SFA5KDC-202" value="&lt;font style=&quot;font-size: 8px&quot;&gt;Richiesta&lt;/font&gt;" style="shape=rhombus;perimeter=rhombusPerimeter;whiteSpace=wrap;html=1;align=center;fontFamily=Arial;fontSize=8;strokeWidth=1;fillColor=none;" parent="1" vertex="1">
          <mxGeometry x="1160.6799999999998" y="968.4499999999999" width="77.5" height="23.1" as="geometry" />
        </mxCell>
        <mxCell id="b5X4EiwwMwYe8SFA5KDC-206" style="edgeStyle=orthogonalEdgeStyle;orthogonalLoop=1;jettySize=auto;html=1;fontFamily=Arial;fontSize=8;endArrow=none;endFill=0;strokeWidth=1;fillColor=#000000;exitX=0.5;exitY=0;exitDx=0;exitDy=0;rounded=1;" parent="1" source="b5X4EiwwMwYe8SFA5KDC-207" edge="1">
          <mxGeometry relative="1" as="geometry">
            <mxPoint x="1390" y="940" as="targetPoint" />
            <Array as="points">
              <mxPoint x="1340" y="940" />
            </Array>
          </mxGeometry>
        </mxCell>
        <mxCell id="b5X4EiwwMwYe8SFA5KDC-207" value="" style="ellipse;whiteSpace=wrap;html=1;aspect=fixed;fontFamily=Arial;strokeWidth=1;fillColor=#000000;" parent="1" vertex="1">
          <mxGeometry x="1338.04" y="991.55" width="5" height="5" as="geometry" />
        </mxCell>
        <mxCell id="b5X4EiwwMwYe8SFA5KDC-208" value="&lt;span style=&quot;font-size: 8px&quot;&gt;(1,1)&lt;/span&gt;" style="text;html=1;strokeColor=none;fillColor=none;align=right;verticalAlign=middle;whiteSpace=wrap;rounded=0;fontFamily=Arial;" parent="1" vertex="1">
          <mxGeometry x="1380" y="930" width="20" as="geometry" />
        </mxCell>
        <mxCell id="b5X4EiwwMwYe8SFA5KDC-209" value="&lt;span style=&quot;font-size: 8px&quot;&gt;(1,1)&lt;/span&gt;" style="text;html=1;strokeColor=none;fillColor=none;align=right;verticalAlign=middle;whiteSpace=wrap;rounded=0;fontFamily=Arial;" parent="1" vertex="1">
          <mxGeometry x="1430" y="940" width="20" as="geometry" />
        </mxCell>
        <mxCell id="b5X4EiwwMwYe8SFA5KDC-210" value="&lt;span style=&quot;font-size: 8px&quot;&gt;(0,N)&lt;/span&gt;" style="text;html=1;strokeColor=none;fillColor=none;align=right;verticalAlign=middle;whiteSpace=wrap;rounded=0;fontFamily=Arial;" parent="1" vertex="1">
          <mxGeometry x="1380" y="870" width="20" as="geometry" />
        </mxCell>
        <mxCell id="b5X4EiwwMwYe8SFA5KDC-212" value="&lt;span style=&quot;font-size: 8px&quot;&gt;(0,N)&lt;/span&gt;" style="text;html=1;strokeColor=none;fillColor=none;align=right;verticalAlign=middle;whiteSpace=wrap;rounded=0;fontFamily=Arial;" parent="1" vertex="1">
          <mxGeometry x="1430" y="870" width="20" as="geometry" />
        </mxCell>
        <mxCell id="b5X4EiwwMwYe8SFA5KDC-213" value="&lt;span style=&quot;font-size: 8px&quot;&gt;(1,1)&lt;/span&gt;" style="text;html=1;strokeColor=none;fillColor=none;align=right;verticalAlign=middle;whiteSpace=wrap;rounded=0;fontFamily=Arial;" parent="1" vertex="1">
          <mxGeometry x="1318.04" y="968.45" width="20" as="geometry" />
        </mxCell>
        <mxCell id="b5X4EiwwMwYe8SFA5KDC-215" value="" style="edgeStyle=orthogonalEdgeStyle;rounded=1;orthogonalLoop=1;jettySize=auto;html=1;fontFamily=Arial;fontSize=8;endArrow=none;endFill=0;strokeWidth=1;fillColor=#000000;" parent="1" source="b5X4EiwwMwYe8SFA5KDC-214" target="oi-J7NC_e-j-eJ_lcssu-6" edge="1">
          <mxGeometry relative="1" as="geometry" />
        </mxCell>
        <mxCell id="b5X4EiwwMwYe8SFA5KDC-216" value="" style="edgeStyle=orthogonalEdgeStyle;rounded=1;orthogonalLoop=1;jettySize=auto;html=1;fontFamily=Arial;fontSize=8;endArrow=none;endFill=0;strokeWidth=1;fillColor=#000000;" parent="1" source="b5X4EiwwMwYe8SFA5KDC-214" target="_fapoDE7ZvtlARoi-Pqi-3" edge="1">
          <mxGeometry relative="1" as="geometry" />
        </mxCell>
        <mxCell id="b5X4EiwwMwYe8SFA5KDC-214" value="&lt;font style=&quot;font-size: 8px&quot;&gt;Erogazione&lt;/font&gt;" style="shape=rhombus;perimeter=rhombusPerimeter;whiteSpace=wrap;html=1;align=center;fontFamily=Arial;fontSize=8;strokeWidth=1;fillColor=none;" parent="1" vertex="1">
          <mxGeometry x="1236.25" y="476.9" width="77.5" height="23.1" as="geometry" />
        </mxCell>
        <mxCell id="b5X4EiwwMwYe8SFA5KDC-220" style="edgeStyle=orthogonalEdgeStyle;rounded=1;orthogonalLoop=1;jettySize=auto;html=1;entryX=0.873;entryY=1.007;entryDx=0;entryDy=0;entryPerimeter=0;fontFamily=Arial;fontSize=8;endArrow=none;endFill=0;strokeWidth=1;fillColor=#000000;" parent="1" source="b5X4EiwwMwYe8SFA5KDC-217" target="_fapoDE7ZvtlARoi-Pqi-3" edge="1">
          <mxGeometry relative="1" as="geometry">
            <mxPoint x="1319.88" y="659.4" as="targetPoint" />
          </mxGeometry>
        </mxCell>
        <mxCell id="b5X4EiwwMwYe8SFA5KDC-221" style="edgeStyle=orthogonalEdgeStyle;rounded=1;orthogonalLoop=1;jettySize=auto;html=1;entryX=0.25;entryY=1;entryDx=0;entryDy=0;fontFamily=Arial;fontSize=8;endArrow=none;endFill=0;strokeWidth=1;fillColor=#000000;exitX=0.5;exitY=1;exitDx=0;exitDy=0;" parent="1" source="b5X4EiwwMwYe8SFA5KDC-217" target="oi-J7NC_e-j-eJ_lcssu-4" edge="1">
          <mxGeometry relative="1" as="geometry">
            <mxPoint x="1375" y="659.22" as="targetPoint" />
            <Array as="points">
              <mxPoint x="1320" y="710" />
              <mxPoint x="1375" y="710" />
            </Array>
          </mxGeometry>
        </mxCell>
        <mxCell id="b5X4EiwwMwYe8SFA5KDC-217" value="Materia" style="shape=rhombus;perimeter=rhombusPerimeter;whiteSpace=wrap;html=1;align=center;fontFamily=Arial;fontSize=8;strokeWidth=1;fillColor=none;" parent="1" vertex="1">
          <mxGeometry x="1281.08" y="679.9999999999999" width="77.5" height="23.1" as="geometry" />
        </mxCell>
        <mxCell id="b5X4EiwwMwYe8SFA5KDC-223" style="edgeStyle=orthogonalEdgeStyle;rounded=1;orthogonalLoop=1;jettySize=auto;html=1;entryX=0.28;entryY=0.987;entryDx=0;entryDy=0;entryPerimeter=0;fontFamily=Arial;fontSize=8;endArrow=none;endFill=0;strokeWidth=1;fillColor=#000000;" parent="1" source="b5X4EiwwMwYe8SFA5KDC-222" target="_fapoDE7ZvtlARoi-Pqi-3" edge="1">
          <mxGeometry relative="1" as="geometry" />
        </mxCell>
        <mxCell id="b5X4EiwwMwYe8SFA5KDC-224" style="edgeStyle=orthogonalEdgeStyle;rounded=1;orthogonalLoop=1;jettySize=auto;html=1;fontFamily=Arial;fontSize=8;endArrow=none;endFill=0;strokeWidth=1;fillColor=#000000;" parent="1" source="b5X4EiwwMwYe8SFA5KDC-222" edge="1">
          <mxGeometry relative="1" as="geometry">
            <mxPoint x="1210" y="750" as="targetPoint" />
            <Array as="points">
              <mxPoint x="1248" y="750" />
            </Array>
          </mxGeometry>
        </mxCell>
        <mxCell id="b5X4EiwwMwYe8SFA5KDC-222" value="Formazione" style="shape=rhombus;perimeter=rhombusPerimeter;whiteSpace=wrap;html=1;align=center;fontFamily=Arial;fontSize=8;strokeWidth=1;fillColor=none;" parent="1" vertex="1">
          <mxGeometry x="1209.29" y="671.4699999999999" width="77.5" height="23.1" as="geometry" />
        </mxCell>
        <mxCell id="b5X4EiwwMwYe8SFA5KDC-226" value="&lt;span style=&quot;font-size: 8px&quot;&gt;Data pianificata&lt;/span&gt;" style="text;html=1;strokeColor=none;fillColor=none;align=right;verticalAlign=middle;whiteSpace=wrap;rounded=0;fontFamily=Arial;" parent="1" vertex="1">
          <mxGeometry x="1215" y="545" width="58.58" height="5" as="geometry" />
        </mxCell>
        <mxCell id="b5X4EiwwMwYe8SFA5KDC-227" style="edgeStyle=orthogonalEdgeStyle;rounded=0;orthogonalLoop=1;jettySize=auto;html=1;entryX=0.275;entryY=0.002;entryDx=0;entryDy=0;entryPerimeter=0;fontFamily=Arial;fontSize=8;endArrow=none;endFill=0;strokeWidth=1;fillColor=#000000;" parent="1" source="b5X4EiwwMwYe8SFA5KDC-228" edge="1">
          <mxGeometry relative="1" as="geometry">
            <mxPoint x="1266.0799999999997" y="590" as="targetPoint" />
            <Array as="points">
              <mxPoint x="1266.58" y="589.92" />
              <mxPoint x="1266.58" y="589.92" />
            </Array>
          </mxGeometry>
        </mxCell>
        <mxCell id="b5X4EiwwMwYe8SFA5KDC-228" value="" style="ellipse;whiteSpace=wrap;html=1;aspect=fixed;fontFamily=Arial;strokeWidth=1;fillColor=#FFFFFF;" parent="1" vertex="1">
          <mxGeometry x="1263.58" y="555" width="5" height="5" as="geometry" />
        </mxCell>
        <mxCell id="b5X4EiwwMwYe8SFA5KDC-229" style="edgeStyle=orthogonalEdgeStyle;rounded=0;orthogonalLoop=1;jettySize=auto;html=1;fontFamily=Arial;fontSize=8;endArrow=none;endFill=0;strokeWidth=1;fillColor=#000000;" parent="1" edge="1">
          <mxGeometry relative="1" as="geometry">
            <mxPoint x="1232.5000000000002" y="589.5" as="targetPoint" />
            <mxPoint x="1232.29" y="590" as="sourcePoint" />
          </mxGeometry>
        </mxCell>
        <mxCell id="b5X4EiwwMwYe8SFA5KDC-230" style="edgeStyle=orthogonalEdgeStyle;rounded=0;orthogonalLoop=1;jettySize=auto;html=1;exitX=0.5;exitY=1;exitDx=0;exitDy=0;fontFamily=Arial;fontSize=8;endArrow=none;endFill=0;strokeWidth=1;fillColor=#000000;" parent="1" source="b5X4EiwwMwYe8SFA5KDC-231" edge="1">
          <mxGeometry relative="1" as="geometry">
            <mxPoint x="1232.5000000000002" y="589.5" as="targetPoint" />
          </mxGeometry>
        </mxCell>
        <mxCell id="b5X4EiwwMwYe8SFA5KDC-231" value="" style="ellipse;whiteSpace=wrap;html=1;aspect=fixed;fontFamily=Arial;strokeWidth=1;fillColor=#FFFFFF;" parent="1" vertex="1">
          <mxGeometry x="1230" y="574.5" width="5" height="5" as="geometry" />
        </mxCell>
        <mxCell id="b5X4EiwwMwYe8SFA5KDC-232" style="edgeStyle=orthogonalEdgeStyle;rounded=0;orthogonalLoop=1;jettySize=auto;html=1;fontFamily=Arial;fontSize=8;endArrow=none;endFill=0;strokeWidth=1;fillColor=#000000;" parent="1" edge="1">
          <mxGeometry relative="1" as="geometry">
            <mxPoint x="1242.5000000000002" y="589.5" as="targetPoint" />
            <mxPoint x="1242.29" y="590" as="sourcePoint" />
          </mxGeometry>
        </mxCell>
        <mxCell id="b5X4EiwwMwYe8SFA5KDC-233" style="edgeStyle=orthogonalEdgeStyle;rounded=0;orthogonalLoop=1;jettySize=auto;html=1;exitX=0.5;exitY=1;exitDx=0;exitDy=0;fontFamily=Arial;fontSize=8;endArrow=none;endFill=0;strokeWidth=1;fillColor=#000000;" parent="1" source="b5X4EiwwMwYe8SFA5KDC-234" edge="1">
          <mxGeometry relative="1" as="geometry">
            <mxPoint x="1242.5000000000002" y="589.5" as="targetPoint" />
          </mxGeometry>
        </mxCell>
        <mxCell id="b5X4EiwwMwYe8SFA5KDC-234" value="" style="ellipse;whiteSpace=wrap;html=1;aspect=fixed;fontFamily=Arial;strokeWidth=1;fillColor=#FFFFFF;" parent="1" vertex="1">
          <mxGeometry x="1240" y="565" width="5" height="5" as="geometry" />
        </mxCell>
        <mxCell id="b5X4EiwwMwYe8SFA5KDC-235" value="&lt;span style=&quot;font-size: 8px&quot;&gt;Data effettiva (0,1)&lt;/span&gt;" style="text;html=1;strokeColor=none;fillColor=none;align=right;verticalAlign=middle;whiteSpace=wrap;rounded=0;fontFamily=Arial;" parent="1" vertex="1">
          <mxGeometry x="1180" y="555" width="68.58" height="5" as="geometry" />
        </mxCell>
        <mxCell id="b5X4EiwwMwYe8SFA5KDC-236" value="&lt;span style=&quot;font-size: 8px&quot;&gt;Descrizione (0,1)&lt;/span&gt;" style="text;html=1;strokeColor=none;fillColor=none;align=right;verticalAlign=middle;whiteSpace=wrap;rounded=0;fontFamily=Arial;" parent="1" vertex="1">
          <mxGeometry x="1171.42" y="565" width="68.58" height="5" as="geometry" />
        </mxCell>
        <mxCell id="b5X4EiwwMwYe8SFA5KDC-239" style="edgeStyle=orthogonalEdgeStyle;rounded=1;orthogonalLoop=1;jettySize=auto;html=1;fontFamily=Arial;fontSize=8;endArrow=none;endFill=0;strokeWidth=1;fillColor=#000000;" parent="1" source="b5X4EiwwMwYe8SFA5KDC-238" edge="1">
          <mxGeometry relative="1" as="geometry">
            <mxPoint x="1260" y="580" as="targetPoint" />
            <Array as="points">
              <mxPoint x="1340" y="658" />
              <mxPoint x="1340" y="580" />
            </Array>
          </mxGeometry>
        </mxCell>
        <mxCell id="b5X4EiwwMwYe8SFA5KDC-238" value="" style="ellipse;whiteSpace=wrap;html=1;aspect=fixed;fontFamily=Arial;strokeWidth=1;fillColor=#000000;" parent="1" vertex="1">
          <mxGeometry x="1233.18" y="655" width="5" height="5" as="geometry" />
        </mxCell>
        <mxCell id="b5X4EiwwMwYe8SFA5KDC-240" value="&lt;span style=&quot;font-size: 8px&quot;&gt;(1,1)&lt;/span&gt;" style="text;html=1;strokeColor=none;fillColor=none;align=right;verticalAlign=middle;whiteSpace=wrap;rounded=0;fontFamily=Arial;" parent="1" vertex="1">
          <mxGeometry x="1248.58" y="660" width="20" as="geometry" />
        </mxCell>
        <mxCell id="b5X4EiwwMwYe8SFA5KDC-241" value="&lt;span style=&quot;font-size: 8px&quot;&gt;(1,1)&lt;/span&gt;" style="text;html=1;strokeColor=none;fillColor=none;align=right;verticalAlign=middle;whiteSpace=wrap;rounded=0;fontFamily=Arial;" parent="1" vertex="1">
          <mxGeometry x="1323.04" y="660" width="20" as="geometry" />
        </mxCell>
        <mxCell id="b5X4EiwwMwYe8SFA5KDC-243" value="&lt;span style=&quot;font-size: 8px&quot;&gt;(0,N)&lt;/span&gt;" style="text;html=1;strokeColor=none;fillColor=none;align=right;verticalAlign=middle;whiteSpace=wrap;rounded=0;fontFamily=Arial;" parent="1" vertex="1">
          <mxGeometry x="1378.58" y="650" width="20" height="10" as="geometry" />
        </mxCell>
        <mxCell id="b5X4EiwwMwYe8SFA5KDC-244" value="&lt;span style=&quot;font-size: 8px&quot;&gt;(1,1)&lt;/span&gt;" style="text;html=1;strokeColor=none;fillColor=none;align=right;verticalAlign=middle;whiteSpace=wrap;rounded=0;fontFamily=Arial;" parent="1" vertex="1">
          <mxGeometry x="1275" y="570" width="20" as="geometry" />
        </mxCell>
        <mxCell id="b5X4EiwwMwYe8SFA5KDC-245" value="&lt;span style=&quot;font-size: 8px&quot;&gt;(0,N)&lt;/span&gt;" style="text;html=1;strokeColor=none;fillColor=none;align=right;verticalAlign=middle;whiteSpace=wrap;rounded=0;fontFamily=Arial;" parent="1" vertex="1">
          <mxGeometry x="1280" y="380" width="20" height="10" as="geometry" />
        </mxCell>
        <mxCell id="b5X4EiwwMwYe8SFA5KDC-252" style="edgeStyle=orthogonalEdgeStyle;rounded=1;orthogonalLoop=1;jettySize=auto;html=1;fontFamily=Arial;fontSize=8;endArrow=none;endFill=0;strokeWidth=1;fillColor=#000000;" parent="1" source="b5X4EiwwMwYe8SFA5KDC-246" edge="1">
          <mxGeometry relative="1" as="geometry">
            <mxPoint x="1120" y="50" as="targetPoint" />
            <Array as="points">
              <mxPoint x="1620" y="498" />
              <mxPoint x="1620" y="50" />
            </Array>
          </mxGeometry>
        </mxCell>
        <mxCell id="b5X4EiwwMwYe8SFA5KDC-246" value="&lt;font style=&quot;font-size: 8px&quot;&gt;Argomento&lt;/font&gt;" style="shape=rhombus;perimeter=rhombusPerimeter;whiteSpace=wrap;html=1;align=center;fontFamily=Arial;fontSize=8;strokeWidth=1;fillColor=none;" parent="1" vertex="1">
          <mxGeometry x="1482.5" y="486.9" width="77.5" height="23.1" as="geometry" />
        </mxCell>
        <mxCell id="b5X4EiwwMwYe8SFA5KDC-249" style="edgeStyle=orthogonalEdgeStyle;rounded=1;orthogonalLoop=1;jettySize=auto;html=1;fontFamily=Arial;fontSize=8;endArrow=none;endFill=0;strokeWidth=1;fillColor=#000000;" parent="1" source="b5X4EiwwMwYe8SFA5KDC-248" edge="1">
          <mxGeometry relative="1" as="geometry">
            <mxPoint x="1120" y="30" as="targetPoint" />
            <Array as="points">
              <mxPoint x="1640" y="522" />
              <mxPoint x="1640" y="30" />
            </Array>
          </mxGeometry>
        </mxCell>
        <mxCell id="b5X4EiwwMwYe8SFA5KDC-248" value="Interessamento" style="shape=rhombus;perimeter=rhombusPerimeter;whiteSpace=wrap;html=1;align=center;fontFamily=Arial;fontSize=8;strokeWidth=1;fillColor=none;" parent="1" vertex="1">
          <mxGeometry x="1517.5" y="510" width="77.5" height="23.1" as="geometry" />
        </mxCell>
        <mxCell id="sTZLH5pyBNpPedKmUO0G-1" value="accounts" style="rounded=0;whiteSpace=wrap;html=1;fontSize=16;strokeWidth=1;fontStyle=0;fontFamily=Arial;" parent="1" vertex="1">
          <mxGeometry x="515.6800000000001" y="307.5" width="120" height="60" as="geometry" />
        </mxCell>
        <mxCell id="sTZLH5pyBNpPedKmUO0G-2" value="&lt;font style=&quot;font-size: 8px&quot;&gt;username&lt;/font&gt;" style="text;html=1;strokeColor=none;fillColor=none;align=right;verticalAlign=middle;whiteSpace=wrap;rounded=0;fontFamily=Arial;" parent="1" vertex="1">
          <mxGeometry x="441.36000000000007" y="300" width="30" height="10" as="geometry" />
        </mxCell>
        <mxCell id="sTZLH5pyBNpPedKmUO0G-3" style="edgeStyle=orthogonalEdgeStyle;rounded=0;orthogonalLoop=1;jettySize=auto;html=1;entryX=-0.004;entryY=0.03;entryDx=0;entryDy=0;entryPerimeter=0;fontFamily=Arial;endArrow=none;endFill=0;strokeWidth=1;" parent="1" source="sTZLH5pyBNpPedKmUO0G-4" edge="1">
          <mxGeometry relative="1" as="geometry">
            <mxPoint x="515.6800000000001" y="307.4000000000001" as="targetPoint" />
          </mxGeometry>
        </mxCell>
        <mxCell id="sTZLH5pyBNpPedKmUO0G-4" value="" style="ellipse;whiteSpace=wrap;html=1;aspect=fixed;fontFamily=Arial;strokeWidth=1;fillColor=#000000;" parent="1" vertex="1">
          <mxGeometry x="471.36000000000007" y="305" width="5" height="5" as="geometry" />
        </mxCell>
        <mxCell id="sTZLH5pyBNpPedKmUO0G-5" value="&lt;span style=&quot;font-size: 8px&quot;&gt;password&lt;/span&gt;" style="text;html=1;strokeColor=none;fillColor=none;align=right;verticalAlign=middle;whiteSpace=wrap;rounded=0;fontFamily=Arial;" parent="1" vertex="1">
          <mxGeometry x="441.36000000000007" y="307.5" width="30" height="10" as="geometry" />
        </mxCell>
        <mxCell id="sTZLH5pyBNpPedKmUO0G-6" style="edgeStyle=orthogonalEdgeStyle;rounded=0;orthogonalLoop=1;jettySize=auto;html=1;entryX=-0.004;entryY=0.03;entryDx=0;entryDy=0;entryPerimeter=0;fontFamily=Arial;endArrow=none;endFill=0;strokeWidth=1;" parent="1" source="sTZLH5pyBNpPedKmUO0G-7" edge="1">
          <mxGeometry relative="1" as="geometry">
            <mxPoint x="515.6800000000001" y="314.9000000000001" as="targetPoint" />
          </mxGeometry>
        </mxCell>
        <mxCell id="sTZLH5pyBNpPedKmUO0G-7" value="" style="ellipse;whiteSpace=wrap;html=1;aspect=fixed;fontFamily=Arial;strokeWidth=1;fillColor=#FFFFFF;" parent="1" vertex="1">
          <mxGeometry x="471.36000000000007" y="312.5" width="5" height="5" as="geometry" />
        </mxCell>
        <mxCell id="sTZLH5pyBNpPedKmUO0G-8" value="&lt;font style=&quot;font-size: 8px&quot;&gt;active&lt;/font&gt;" style="text;html=1;strokeColor=none;fillColor=none;align=right;verticalAlign=middle;whiteSpace=wrap;rounded=0;fontFamily=Arial;" parent="1" vertex="1">
          <mxGeometry x="435.68" y="315" width="35.68" height="10" as="geometry" />
        </mxCell>
        <mxCell id="sTZLH5pyBNpPedKmUO0G-9" style="edgeStyle=orthogonalEdgeStyle;rounded=0;orthogonalLoop=1;jettySize=auto;html=1;entryX=-0.004;entryY=0.03;entryDx=0;entryDy=0;entryPerimeter=0;fontFamily=Arial;endArrow=none;endFill=0;strokeWidth=1;" parent="1" source="sTZLH5pyBNpPedKmUO0G-10" edge="1">
          <mxGeometry relative="1" as="geometry">
            <mxPoint x="515.6800000000001" y="322.4000000000001" as="targetPoint" />
          </mxGeometry>
        </mxCell>
        <mxCell id="sTZLH5pyBNpPedKmUO0G-10" value="" style="ellipse;whiteSpace=wrap;html=1;aspect=fixed;fontFamily=Arial;strokeWidth=1;fillColor=#FFFFFF;" parent="1" vertex="1">
          <mxGeometry x="471.36000000000007" y="320" width="5" height="5" as="geometry" />
        </mxCell>
        <mxCell id="sTZLH5pyBNpPedKmUO0G-44" value="messages" style="rounded=0;whiteSpace=wrap;html=1;fontSize=16;strokeWidth=1;fontStyle=0;fontFamily=Arial;" parent="1" vertex="1">
          <mxGeometry x="362.16" y="416.28" width="120" height="60" as="geometry" />
        </mxCell>
        <mxCell id="sTZLH5pyBNpPedKmUO0G-63" value="&lt;font style=&quot;font-size: 8px&quot;&gt;message_id&lt;/font&gt;" style="text;html=1;strokeColor=none;fillColor=none;align=right;verticalAlign=middle;whiteSpace=wrap;rounded=0;fontFamily=Arial;" parent="1" vertex="1">
          <mxGeometry x="287.8400000000001" y="408.78" width="30" height="10" as="geometry" />
        </mxCell>
        <mxCell id="sTZLH5pyBNpPedKmUO0G-64" style="edgeStyle=orthogonalEdgeStyle;rounded=0;orthogonalLoop=1;jettySize=auto;html=1;entryX=-0.004;entryY=0.03;entryDx=0;entryDy=0;entryPerimeter=0;fontFamily=Arial;endArrow=none;endFill=0;strokeWidth=1;" parent="1" source="sTZLH5pyBNpPedKmUO0G-65" edge="1">
          <mxGeometry relative="1" as="geometry">
            <mxPoint x="362.16" y="416.18000000000006" as="targetPoint" />
          </mxGeometry>
        </mxCell>
        <mxCell id="sTZLH5pyBNpPedKmUO0G-65" value="" style="ellipse;whiteSpace=wrap;html=1;aspect=fixed;fontFamily=Arial;strokeWidth=1;fillColor=#000000;" parent="1" vertex="1">
          <mxGeometry x="317.8400000000001" y="413.78" width="5" height="5" as="geometry" />
        </mxCell>
        <mxCell id="sTZLH5pyBNpPedKmUO0G-66" value="&lt;span style=&quot;font-size: 8px&quot;&gt;name&lt;/span&gt;" style="text;html=1;strokeColor=none;fillColor=none;align=right;verticalAlign=middle;whiteSpace=wrap;rounded=0;fontFamily=Arial;" parent="1" vertex="1">
          <mxGeometry x="287.8400000000001" y="416.28" width="30" height="10" as="geometry" />
        </mxCell>
        <mxCell id="sTZLH5pyBNpPedKmUO0G-67" style="edgeStyle=orthogonalEdgeStyle;rounded=0;orthogonalLoop=1;jettySize=auto;html=1;entryX=-0.004;entryY=0.03;entryDx=0;entryDy=0;entryPerimeter=0;fontFamily=Arial;endArrow=none;endFill=0;strokeWidth=1;" parent="1" source="sTZLH5pyBNpPedKmUO0G-68" edge="1">
          <mxGeometry relative="1" as="geometry">
            <mxPoint x="362.16" y="423.68000000000006" as="targetPoint" />
          </mxGeometry>
        </mxCell>
        <mxCell id="sTZLH5pyBNpPedKmUO0G-68" value="" style="ellipse;whiteSpace=wrap;html=1;aspect=fixed;fontFamily=Arial;strokeWidth=1;fillColor=#FFFFFF;" parent="1" vertex="1">
          <mxGeometry x="317.8400000000001" y="421.28" width="5" height="5" as="geometry" />
        </mxCell>
        <mxCell id="sTZLH5pyBNpPedKmUO0G-69" value="&lt;font style=&quot;font-size: 8px&quot;&gt;email&lt;/font&gt;" style="text;html=1;strokeColor=none;fillColor=none;align=right;verticalAlign=middle;whiteSpace=wrap;rounded=0;fontFamily=Arial;" parent="1" vertex="1">
          <mxGeometry x="282.16" y="423.78" width="35.68" height="10" as="geometry" />
        </mxCell>
        <mxCell id="sTZLH5pyBNpPedKmUO0G-70" style="edgeStyle=orthogonalEdgeStyle;rounded=0;orthogonalLoop=1;jettySize=auto;html=1;entryX=-0.004;entryY=0.03;entryDx=0;entryDy=0;entryPerimeter=0;fontFamily=Arial;endArrow=none;endFill=0;strokeWidth=1;" parent="1" source="sTZLH5pyBNpPedKmUO0G-71" edge="1">
          <mxGeometry relative="1" as="geometry">
            <mxPoint x="362.16" y="431.18000000000006" as="targetPoint" />
          </mxGeometry>
        </mxCell>
        <mxCell id="sTZLH5pyBNpPedKmUO0G-71" value="" style="ellipse;whiteSpace=wrap;html=1;aspect=fixed;fontFamily=Arial;strokeWidth=1;fillColor=#FFFFFF;" parent="1" vertex="1">
          <mxGeometry x="317.8400000000001" y="428.78" width="5" height="5" as="geometry" />
        </mxCell>
        <mxCell id="sTZLH5pyBNpPedKmUO0G-77" style="edgeStyle=orthogonalEdgeStyle;rounded=0;orthogonalLoop=1;jettySize=auto;html=1;entryX=-0.004;entryY=0.03;entryDx=0;entryDy=0;entryPerimeter=0;fontFamily=Arial;endArrow=none;endFill=0;strokeWidth=1;" parent="1" source="sTZLH5pyBNpPedKmUO0G-78" edge="1">
          <mxGeometry relative="1" as="geometry">
            <mxPoint x="362.16" y="439.93000000000006" as="targetPoint" />
          </mxGeometry>
        </mxCell>
        <mxCell id="sTZLH5pyBNpPedKmUO0G-78" value="" style="ellipse;whiteSpace=wrap;html=1;aspect=fixed;fontFamily=Arial;strokeWidth=1;fillColor=#FFFFFF;" parent="1" vertex="1">
          <mxGeometry x="317.8400000000001" y="437.53" width="5" height="5" as="geometry" />
        </mxCell>
        <mxCell id="sTZLH5pyBNpPedKmUO0G-79" value="&lt;font style=&quot;font-size: 8px&quot;&gt;creation_date&lt;/font&gt;" style="text;html=1;strokeColor=none;fillColor=none;align=right;verticalAlign=middle;whiteSpace=wrap;rounded=0;fontFamily=Arial;" parent="1" vertex="1">
          <mxGeometry x="282.16" y="440.03" width="35.68" height="10" as="geometry" />
        </mxCell>
        <mxCell id="sTZLH5pyBNpPedKmUO0G-80" style="edgeStyle=orthogonalEdgeStyle;rounded=0;orthogonalLoop=1;jettySize=auto;html=1;entryX=-0.004;entryY=0.03;entryDx=0;entryDy=0;entryPerimeter=0;fontFamily=Arial;endArrow=none;endFill=0;strokeWidth=1;" parent="1" source="sTZLH5pyBNpPedKmUO0G-81" edge="1">
          <mxGeometry relative="1" as="geometry">
            <mxPoint x="362.16" y="447.43000000000006" as="targetPoint" />
          </mxGeometry>
        </mxCell>
        <mxCell id="sTZLH5pyBNpPedKmUO0G-81" value="" style="ellipse;whiteSpace=wrap;html=1;aspect=fixed;fontFamily=Arial;strokeWidth=1;fillColor=#FFFFFF;" parent="1" vertex="1">
          <mxGeometry x="317.8400000000001" y="445.03" width="5" height="5" as="geometry" />
        </mxCell>
        <mxCell id="sTZLH5pyBNpPedKmUO0G-82" value="&lt;font style=&quot;font-size: 8px&quot;&gt;message&lt;/font&gt;" style="text;html=1;strokeColor=none;fillColor=none;align=right;verticalAlign=middle;whiteSpace=wrap;rounded=0;fontFamily=Arial;" parent="1" vertex="1">
          <mxGeometry x="282.16" y="432.53" width="35.68" height="10" as="geometry" />
        </mxCell>
        <mxCell id="sTZLH5pyBNpPedKmUO0G-93" value="products" style="rounded=0;whiteSpace=wrap;html=1;fontSize=16;strokeWidth=1;fontStyle=0;fontFamily=Arial;" parent="1" vertex="1">
          <mxGeometry x="362.1600000000001" y="196.29999999999998" width="120" height="60" as="geometry" />
        </mxCell>
        <mxCell id="sTZLH5pyBNpPedKmUO0G-94" value="&lt;font style=&quot;font-size: 8px&quot;&gt;product_id&lt;/font&gt;" style="text;html=1;strokeColor=none;fillColor=none;align=right;verticalAlign=middle;whiteSpace=wrap;rounded=0;fontFamily=Arial;" parent="1" vertex="1">
          <mxGeometry x="292.1600000000001" y="188.79999999999998" width="25.68" height="10" as="geometry" />
        </mxCell>
        <mxCell id="sTZLH5pyBNpPedKmUO0G-95" style="edgeStyle=orthogonalEdgeStyle;rounded=0;orthogonalLoop=1;jettySize=auto;html=1;entryX=-0.004;entryY=0.03;entryDx=0;entryDy=0;entryPerimeter=0;fontFamily=Arial;endArrow=none;endFill=0;strokeWidth=1;" parent="1" source="sTZLH5pyBNpPedKmUO0G-96" edge="1">
          <mxGeometry relative="1" as="geometry">
            <mxPoint x="362.1600000000001" y="196.20000000000007" as="targetPoint" />
          </mxGeometry>
        </mxCell>
        <mxCell id="sTZLH5pyBNpPedKmUO0G-96" value="" style="ellipse;whiteSpace=wrap;html=1;aspect=fixed;fontFamily=Arial;strokeWidth=1;fillColor=#000000;" parent="1" vertex="1">
          <mxGeometry x="317.84000000000015" y="193.79999999999998" width="5" height="5" as="geometry" />
        </mxCell>
        <mxCell id="sTZLH5pyBNpPedKmUO0G-97" value="&lt;span style=&quot;font-size: 8px&quot;&gt;name&lt;/span&gt;" style="text;html=1;strokeColor=none;fillColor=none;align=right;verticalAlign=middle;whiteSpace=wrap;rounded=0;fontFamily=Arial;" parent="1" vertex="1">
          <mxGeometry x="287.84000000000015" y="196.29999999999998" width="30" height="10" as="geometry" />
        </mxCell>
        <mxCell id="sTZLH5pyBNpPedKmUO0G-98" style="edgeStyle=orthogonalEdgeStyle;rounded=0;orthogonalLoop=1;jettySize=auto;html=1;entryX=-0.004;entryY=0.03;entryDx=0;entryDy=0;entryPerimeter=0;fontFamily=Arial;endArrow=none;endFill=0;strokeWidth=1;" parent="1" source="sTZLH5pyBNpPedKmUO0G-99" edge="1">
          <mxGeometry relative="1" as="geometry">
            <mxPoint x="362.1600000000001" y="203.70000000000007" as="targetPoint" />
          </mxGeometry>
        </mxCell>
        <mxCell id="sTZLH5pyBNpPedKmUO0G-99" value="" style="ellipse;whiteSpace=wrap;html=1;aspect=fixed;fontFamily=Arial;strokeWidth=1;fillColor=#FFFFFF;" parent="1" vertex="1">
          <mxGeometry x="317.84000000000015" y="201.29999999999998" width="5" height="5" as="geometry" />
        </mxCell>
        <mxCell id="sTZLH5pyBNpPedKmUO0G-100" value="&lt;font style=&quot;font-size: 8px&quot;&gt;description&lt;/font&gt;" style="text;html=1;strokeColor=none;fillColor=none;align=right;verticalAlign=middle;whiteSpace=wrap;rounded=0;fontFamily=Arial;" parent="1" vertex="1">
          <mxGeometry x="282.1600000000001" y="203.79999999999998" width="35.68" height="10" as="geometry" />
        </mxCell>
        <mxCell id="sTZLH5pyBNpPedKmUO0G-101" style="edgeStyle=orthogonalEdgeStyle;rounded=0;orthogonalLoop=1;jettySize=auto;html=1;entryX=-0.004;entryY=0.03;entryDx=0;entryDy=0;entryPerimeter=0;fontFamily=Arial;endArrow=none;endFill=0;strokeWidth=1;" parent="1" source="sTZLH5pyBNpPedKmUO0G-102" edge="1">
          <mxGeometry relative="1" as="geometry">
            <mxPoint x="362.1600000000001" y="211.20000000000007" as="targetPoint" />
          </mxGeometry>
        </mxCell>
        <mxCell id="sTZLH5pyBNpPedKmUO0G-102" value="" style="ellipse;whiteSpace=wrap;html=1;aspect=fixed;fontFamily=Arial;strokeWidth=1;fillColor=#FFFFFF;" parent="1" vertex="1">
          <mxGeometry x="317.84000000000015" y="208.79999999999998" width="5" height="5" as="geometry" />
        </mxCell>
        <mxCell id="sTZLH5pyBNpPedKmUO0G-103" style="edgeStyle=orthogonalEdgeStyle;rounded=0;orthogonalLoop=1;jettySize=auto;html=1;entryX=-0.004;entryY=0.03;entryDx=0;entryDy=0;entryPerimeter=0;fontFamily=Arial;endArrow=none;endFill=0;strokeWidth=1;" parent="1" source="sTZLH5pyBNpPedKmUO0G-104" edge="1">
          <mxGeometry relative="1" as="geometry">
            <mxPoint x="362.1600000000001" y="219.95000000000007" as="targetPoint" />
          </mxGeometry>
        </mxCell>
        <mxCell id="sTZLH5pyBNpPedKmUO0G-104" value="" style="ellipse;whiteSpace=wrap;html=1;aspect=fixed;fontFamily=Arial;strokeWidth=1;fillColor=#FFFFFF;" parent="1" vertex="1">
          <mxGeometry x="317.84000000000015" y="217.54999999999998" width="5" height="5" as="geometry" />
        </mxCell>
        <mxCell id="sTZLH5pyBNpPedKmUO0G-105" value="&lt;font style=&quot;font-size: 8px&quot;&gt;discounted_price (0,1)&lt;/font&gt;" style="text;html=1;strokeColor=none;fillColor=none;align=right;verticalAlign=middle;whiteSpace=wrap;rounded=0;fontFamily=Arial;" parent="1" vertex="1">
          <mxGeometry x="232.16" y="220.04999999999998" width="85.68" height="10" as="geometry" />
        </mxCell>
        <mxCell id="sTZLH5pyBNpPedKmUO0G-106" style="edgeStyle=orthogonalEdgeStyle;rounded=0;orthogonalLoop=1;jettySize=auto;html=1;entryX=-0.004;entryY=0.03;entryDx=0;entryDy=0;entryPerimeter=0;fontFamily=Arial;endArrow=none;endFill=0;strokeWidth=1;" parent="1" source="sTZLH5pyBNpPedKmUO0G-107" edge="1">
          <mxGeometry relative="1" as="geometry">
            <mxPoint x="362.1600000000001" y="227.45000000000007" as="targetPoint" />
          </mxGeometry>
        </mxCell>
        <mxCell id="sTZLH5pyBNpPedKmUO0G-107" value="" style="ellipse;whiteSpace=wrap;html=1;aspect=fixed;fontFamily=Arial;strokeWidth=1;fillColor=#FFFFFF;" parent="1" vertex="1">
          <mxGeometry x="317.84000000000015" y="225.04999999999998" width="5" height="5" as="geometry" />
        </mxCell>
        <mxCell id="sTZLH5pyBNpPedKmUO0G-108" value="&lt;font style=&quot;font-size: 8px&quot;&gt;price&lt;/font&gt;" style="text;html=1;strokeColor=none;fillColor=none;align=right;verticalAlign=middle;whiteSpace=wrap;rounded=0;fontFamily=Arial;" parent="1" vertex="1">
          <mxGeometry x="282.1600000000001" y="212.54999999999998" width="35.68" height="10" as="geometry" />
        </mxCell>
        <mxCell id="sTZLH5pyBNpPedKmUO0G-112" value="categories" style="rounded=0;whiteSpace=wrap;html=1;fontSize=16;strokeWidth=1;fontStyle=0;fontFamily=Arial;" parent="1" vertex="1">
          <mxGeometry x="710" y="203.75" width="120" height="60" as="geometry" />
        </mxCell>
        <mxCell id="sTZLH5pyBNpPedKmUO0G-113" value="&lt;font style=&quot;font-size: 8px&quot;&gt;category_id&lt;/font&gt;" style="text;html=1;strokeColor=none;fillColor=none;align=right;verticalAlign=middle;whiteSpace=wrap;rounded=0;fontFamily=Arial;" parent="1" vertex="1">
          <mxGeometry x="640" y="196.25" width="25.68" height="10" as="geometry" />
        </mxCell>
        <mxCell id="sTZLH5pyBNpPedKmUO0G-114" style="edgeStyle=orthogonalEdgeStyle;rounded=0;orthogonalLoop=1;jettySize=auto;html=1;entryX=-0.004;entryY=0.03;entryDx=0;entryDy=0;entryPerimeter=0;fontFamily=Arial;endArrow=none;endFill=0;strokeWidth=1;" parent="1" source="sTZLH5pyBNpPedKmUO0G-115" edge="1">
          <mxGeometry relative="1" as="geometry">
            <mxPoint x="710" y="203.6500000000001" as="targetPoint" />
          </mxGeometry>
        </mxCell>
        <mxCell id="sTZLH5pyBNpPedKmUO0G-115" value="" style="ellipse;whiteSpace=wrap;html=1;aspect=fixed;fontFamily=Arial;strokeWidth=1;fillColor=#000000;" parent="1" vertex="1">
          <mxGeometry x="665.6800000000001" y="201.25" width="5" height="5" as="geometry" />
        </mxCell>
        <mxCell id="sTZLH5pyBNpPedKmUO0G-116" value="&lt;span style=&quot;font-size: 8px&quot;&gt;name&lt;/span&gt;" style="text;html=1;strokeColor=none;fillColor=none;align=right;verticalAlign=middle;whiteSpace=wrap;rounded=0;fontFamily=Arial;" parent="1" vertex="1">
          <mxGeometry x="635.6800000000001" y="203.75" width="30" height="10" as="geometry" />
        </mxCell>
        <mxCell id="sTZLH5pyBNpPedKmUO0G-117" style="edgeStyle=orthogonalEdgeStyle;rounded=0;orthogonalLoop=1;jettySize=auto;html=1;entryX=-0.004;entryY=0.03;entryDx=0;entryDy=0;entryPerimeter=0;fontFamily=Arial;endArrow=none;endFill=0;strokeWidth=1;" parent="1" source="sTZLH5pyBNpPedKmUO0G-118" edge="1">
          <mxGeometry relative="1" as="geometry">
            <mxPoint x="710" y="211.1500000000001" as="targetPoint" />
          </mxGeometry>
        </mxCell>
        <mxCell id="sTZLH5pyBNpPedKmUO0G-118" value="" style="ellipse;whiteSpace=wrap;html=1;aspect=fixed;fontFamily=Arial;strokeWidth=1;fillColor=#FFFFFF;" parent="1" vertex="1">
          <mxGeometry x="665.6800000000001" y="208.75" width="5" height="5" as="geometry" />
        </mxCell>
        <mxCell id="sTZLH5pyBNpPedKmUO0G-129" value="&lt;font style=&quot;font-size: 8px&quot;&gt;brand&lt;/font&gt;" style="text;html=1;strokeColor=none;fillColor=none;align=right;verticalAlign=middle;whiteSpace=wrap;rounded=0;fontFamily=Arial;" parent="1" vertex="1">
          <mxGeometry x="292.1600000000001" y="228.79999999999998" width="25.68" height="10" as="geometry" />
        </mxCell>
        <mxCell id="sTZLH5pyBNpPedKmUO0G-130" style="edgeStyle=orthogonalEdgeStyle;rounded=0;orthogonalLoop=1;jettySize=auto;html=1;entryX=-0.004;entryY=0.03;entryDx=0;entryDy=0;entryPerimeter=0;fontFamily=Arial;endArrow=none;endFill=0;strokeWidth=1;" parent="1" source="sTZLH5pyBNpPedKmUO0G-131" edge="1">
          <mxGeometry relative="1" as="geometry">
            <mxPoint x="362.1600000000001" y="236.20000000000007" as="targetPoint" />
          </mxGeometry>
        </mxCell>
        <mxCell id="sTZLH5pyBNpPedKmUO0G-131" value="" style="ellipse;whiteSpace=wrap;html=1;aspect=fixed;fontFamily=Arial;strokeWidth=1;fillColor=none;" parent="1" vertex="1">
          <mxGeometry x="317.84000000000015" y="233.79999999999998" width="5" height="5" as="geometry" />
        </mxCell>
        <mxCell id="sTZLH5pyBNpPedKmUO0G-132" value="&lt;span style=&quot;font-size: 8px&quot;&gt;color&lt;/span&gt;" style="text;html=1;strokeColor=none;fillColor=none;align=right;verticalAlign=middle;whiteSpace=wrap;rounded=0;fontFamily=Arial;" parent="1" vertex="1">
          <mxGeometry x="287.84000000000015" y="236.29999999999998" width="30" height="10" as="geometry" />
        </mxCell>
        <mxCell id="sTZLH5pyBNpPedKmUO0G-133" style="edgeStyle=orthogonalEdgeStyle;rounded=0;orthogonalLoop=1;jettySize=auto;html=1;entryX=-0.004;entryY=0.03;entryDx=0;entryDy=0;entryPerimeter=0;fontFamily=Arial;endArrow=none;endFill=0;strokeWidth=1;" parent="1" source="sTZLH5pyBNpPedKmUO0G-134" edge="1">
          <mxGeometry relative="1" as="geometry">
            <mxPoint x="362.1600000000001" y="243.70000000000007" as="targetPoint" />
          </mxGeometry>
        </mxCell>
        <mxCell id="sTZLH5pyBNpPedKmUO0G-134" value="" style="ellipse;whiteSpace=wrap;html=1;aspect=fixed;fontFamily=Arial;strokeWidth=1;fillColor=#FFFFFF;" parent="1" vertex="1">
          <mxGeometry x="317.84000000000015" y="241.29999999999998" width="5" height="5" as="geometry" />
        </mxCell>
        <mxCell id="sTZLH5pyBNpPedKmUO0G-148" value="&lt;font style=&quot;font-size: 8px&quot;&gt;category_id&lt;/font&gt;" style="shape=rhombus;perimeter=rhombusPerimeter;whiteSpace=wrap;html=1;align=center;fontFamily=Arial;fontSize=8;strokeWidth=1;fillColor=none;" parent="1" vertex="1">
          <mxGeometry x="532.5000000000001" y="213.79999999999993" width="77.5" height="23.1" as="geometry" />
        </mxCell>
        <mxCell id="sTZLH5pyBNpPedKmUO0G-150" value="&lt;span style=&quot;font-size: 8px&quot;&gt;(1,1)&lt;/span&gt;" style="text;html=1;strokeColor=none;fillColor=none;align=right;verticalAlign=middle;whiteSpace=wrap;rounded=0;fontFamily=Arial;" parent="1" vertex="1">
          <mxGeometry x="482.8400000000002" y="232.49999999999997" width="20" as="geometry" />
        </mxCell>
        <mxCell id="sTZLH5pyBNpPedKmUO0G-151" value="&lt;span style=&quot;font-size: 8px&quot;&gt;(0,N)&lt;/span&gt;" style="text;html=1;strokeColor=none;fillColor=none;align=right;verticalAlign=middle;whiteSpace=wrap;rounded=0;fontFamily=Arial;" parent="1" vertex="1">
          <mxGeometry x="690" y="232.5" width="20" as="geometry" />
        </mxCell>
        <mxCell id="sTZLH5pyBNpPedKmUO0G-182" value="&lt;span style=&quot;font-size: 8px&quot;&gt;Partita IVA&lt;/span&gt;" style="text;html=1;strokeColor=none;fillColor=none;align=center;verticalAlign=middle;whiteSpace=wrap;rounded=0;fontFamily=Arial;" parent="1" vertex="1">
          <mxGeometry x="1306.79" y="100" width="41.42" height="5" as="geometry" />
        </mxCell>
        <mxCell id="sTZLH5pyBNpPedKmUO0G-183" style="edgeStyle=orthogonalEdgeStyle;rounded=0;orthogonalLoop=1;jettySize=auto;html=1;entryX=0.275;entryY=0.002;entryDx=0;entryDy=0;entryPerimeter=0;fontFamily=Arial;fontSize=8;endArrow=none;endFill=0;strokeWidth=1;fillColor=#000000;" parent="1" source="sTZLH5pyBNpPedKmUO0G-184" edge="1">
          <mxGeometry relative="1" as="geometry">
            <mxPoint x="1327.4999999999998" y="130" as="targetPoint" />
            <Array as="points">
              <mxPoint x="1328" y="129.92000000000002" />
              <mxPoint x="1328" y="129.92000000000002" />
            </Array>
          </mxGeometry>
        </mxCell>
        <mxCell id="sTZLH5pyBNpPedKmUO0G-184" value="" style="ellipse;whiteSpace=wrap;html=1;aspect=fixed;fontFamily=Arial;strokeWidth=1;fillColor=#FFFFFF;" parent="1" vertex="1">
          <mxGeometry x="1325" y="109.92" width="5" height="5" as="geometry" />
        </mxCell>
        <mxCell id="I4wDcZHtboUbZCx7e-VV-2" style="edgeStyle=orthogonalEdgeStyle;rounded=0;orthogonalLoop=1;jettySize=auto;html=1;entryX=-0.004;entryY=0.03;entryDx=0;entryDy=0;entryPerimeter=0;fontFamily=Arial;endArrow=none;endFill=0;strokeWidth=1;" parent="1" source="I4wDcZHtboUbZCx7e-VV-3" edge="1">
          <mxGeometry relative="1" as="geometry">
            <mxPoint x="362.1600000000001" y="251.20000000000007" as="targetPoint" />
          </mxGeometry>
        </mxCell>
        <mxCell id="I4wDcZHtboUbZCx7e-VV-3" value="" style="ellipse;whiteSpace=wrap;html=1;aspect=fixed;fontFamily=Arial;strokeWidth=1;fillColor=#FFFFFF;" parent="1" vertex="1">
          <mxGeometry x="317.84000000000015" y="248.79999999999998" width="5" height="5" as="geometry" />
        </mxCell>
        <mxCell id="I4wDcZHtboUbZCx7e-VV-4" value="&lt;span style=&quot;font-size: 8px&quot;&gt;material&lt;/span&gt;" style="text;html=1;strokeColor=none;fillColor=none;align=right;verticalAlign=middle;whiteSpace=wrap;rounded=0;fontFamily=Arial;" parent="1" vertex="1">
          <mxGeometry x="287.84000000000015" y="243.79999999999998" width="30" height="10" as="geometry" />
        </mxCell>
        <mxCell id="I4wDcZHtboUbZCx7e-VV-5" value="&lt;span style=&quot;font-size: 8px&quot;&gt;image_url&lt;/span&gt;" style="text;html=1;strokeColor=none;fillColor=none;align=center;verticalAlign=middle;whiteSpace=wrap;rounded=0;fontFamily=Arial;" parent="1" vertex="1">
          <mxGeometry x="353.94999999999993" y="276.21" width="41.42" height="5" as="geometry" />
        </mxCell>
        <mxCell id="I4wDcZHtboUbZCx7e-VV-6" value="" style="ellipse;whiteSpace=wrap;html=1;aspect=fixed;fontFamily=Arial;strokeWidth=1;fillColor=#FFFFFF;" parent="1" vertex="1">
          <mxGeometry x="372.1" y="271.21" width="5" height="5" as="geometry" />
        </mxCell>
        <mxCell id="I4wDcZHtboUbZCx7e-VV-7" style="edgeStyle=orthogonalEdgeStyle;rounded=0;orthogonalLoop=1;jettySize=auto;html=1;fontFamily=Arial;fontSize=8;endArrow=none;endFill=0;strokeWidth=1;fillColor=#000000;" parent="1" edge="1">
          <mxGeometry relative="1" as="geometry">
            <mxPoint x="374.7500000000002" y="271.38000000000005" as="targetPoint" />
            <Array as="points">
              <mxPoint x="374.96000000000004" y="271.3" />
              <mxPoint x="374.96000000000004" y="271.3" />
            </Array>
            <mxPoint x="374.46000000000004" y="256.3" as="sourcePoint" />
          </mxGeometry>
        </mxCell>
        <mxCell id="8SRtj76MumQYrMwY1Euz-1" value="message_states" style="rounded=0;whiteSpace=wrap;html=1;fontSize=16;strokeWidth=1;fontStyle=0;fontFamily=Arial;" vertex="1" parent="1">
          <mxGeometry x="716.48" y="416.9" width="120" height="60" as="geometry" />
        </mxCell>
        <mxCell id="8SRtj76MumQYrMwY1Euz-2" value="&lt;font style=&quot;font-size: 8px&quot;&gt;state_id&lt;/font&gt;" style="text;html=1;strokeColor=none;fillColor=none;align=right;verticalAlign=middle;whiteSpace=wrap;rounded=0;fontFamily=Arial;" vertex="1" parent="1">
          <mxGeometry x="642.1600000000001" y="415.65" width="30" height="10" as="geometry" />
        </mxCell>
        <mxCell id="8SRtj76MumQYrMwY1Euz-3" style="edgeStyle=orthogonalEdgeStyle;rounded=0;orthogonalLoop=1;jettySize=auto;html=1;entryX=-0.004;entryY=0.03;entryDx=0;entryDy=0;entryPerimeter=0;fontFamily=Arial;endArrow=none;endFill=0;strokeWidth=1;" edge="1" parent="1" source="8SRtj76MumQYrMwY1Euz-4">
          <mxGeometry relative="1" as="geometry">
            <mxPoint x="716.48" y="423.05000000000007" as="targetPoint" />
          </mxGeometry>
        </mxCell>
        <mxCell id="8SRtj76MumQYrMwY1Euz-4" value="" style="ellipse;whiteSpace=wrap;html=1;aspect=fixed;fontFamily=Arial;strokeWidth=1;fillColor=#000000;" vertex="1" parent="1">
          <mxGeometry x="672.1600000000001" y="420.65" width="5" height="5" as="geometry" />
        </mxCell>
        <mxCell id="8SRtj76MumQYrMwY1Euz-5" value="&lt;span style=&quot;font-size: 8px&quot;&gt;name&lt;/span&gt;" style="text;html=1;strokeColor=none;fillColor=none;align=right;verticalAlign=middle;whiteSpace=wrap;rounded=0;fontFamily=Arial;" vertex="1" parent="1">
          <mxGeometry x="642.1600000000001" y="423.15" width="30" height="10" as="geometry" />
        </mxCell>
        <mxCell id="8SRtj76MumQYrMwY1Euz-6" style="edgeStyle=orthogonalEdgeStyle;rounded=0;orthogonalLoop=1;jettySize=auto;html=1;entryX=-0.004;entryY=0.03;entryDx=0;entryDy=0;entryPerimeter=0;fontFamily=Arial;endArrow=none;endFill=0;strokeWidth=1;" edge="1" parent="1" source="8SRtj76MumQYrMwY1Euz-7">
          <mxGeometry relative="1" as="geometry">
            <mxPoint x="716.48" y="430.55000000000007" as="targetPoint" />
          </mxGeometry>
        </mxCell>
        <mxCell id="8SRtj76MumQYrMwY1Euz-7" value="" style="ellipse;whiteSpace=wrap;html=1;aspect=fixed;fontFamily=Arial;strokeWidth=1;fillColor=#FFFFFF;" vertex="1" parent="1">
          <mxGeometry x="672.1600000000001" y="428.15" width="5" height="5" as="geometry" />
        </mxCell>
        <mxCell id="8SRtj76MumQYrMwY1Euz-9" value="state_id" style="shape=rhombus;perimeter=rhombusPerimeter;whiteSpace=wrap;html=1;align=center;fontFamily=Arial;fontSize=8;strokeWidth=1;fillColor=none;" vertex="1" parent="1">
          <mxGeometry x="534.1199999999999" y="431.36" width="78.04" height="29.83" as="geometry" />
        </mxCell>
        <mxCell id="8SRtj76MumQYrMwY1Euz-13" style="edgeStyle=orthogonalEdgeStyle;rounded=0;orthogonalLoop=1;jettySize=auto;html=1;entryX=0;entryY=0.5;entryDx=0;entryDy=0;fontFamily=Arial;fontSize=8;endArrow=none;endFill=0;strokeWidth=1;fillColor=#000000;exitX=1;exitY=0.5;exitDx=0;exitDy=0;" edge="1" parent="1" source="sTZLH5pyBNpPedKmUO0G-44" target="8SRtj76MumQYrMwY1Euz-9">
          <mxGeometry relative="1" as="geometry">
            <mxPoint x="432.16" y="376.28" as="targetPoint" />
            <mxPoint x="432.87" y="426.28" as="sourcePoint" />
            <Array as="points" />
          </mxGeometry>
        </mxCell>
        <mxCell id="8SRtj76MumQYrMwY1Euz-14" style="edgeStyle=orthogonalEdgeStyle;rounded=0;orthogonalLoop=1;jettySize=auto;html=1;fontFamily=Arial;fontSize=8;endArrow=none;endFill=0;strokeWidth=1;fillColor=#000000;entryX=1;entryY=0.5;entryDx=0;entryDy=0;exitX=-0.006;exitY=0.366;exitDx=0;exitDy=0;exitPerimeter=0;" edge="1" parent="1" source="sTZLH5pyBNpPedKmUO0G-112">
          <mxGeometry relative="1" as="geometry">
            <mxPoint x="610" y="225.745" as="targetPoint" />
            <mxPoint x="700" y="226" as="sourcePoint" />
            <Array as="points" />
          </mxGeometry>
        </mxCell>
        <mxCell id="8SRtj76MumQYrMwY1Euz-17" value="&lt;span style=&quot;font-size: 8px&quot;&gt;(0,N)&lt;/span&gt;" style="text;html=1;strokeColor=none;fillColor=none;align=right;verticalAlign=middle;whiteSpace=wrap;rounded=0;fontFamily=Arial;" vertex="1" parent="1">
          <mxGeometry x="692.84" y="453.17999999999995" width="20" as="geometry" />
        </mxCell>
        <mxCell id="8SRtj76MumQYrMwY1Euz-18" value="&lt;span style=&quot;font-size: 8px&quot;&gt;(1,1)&lt;/span&gt;" style="text;html=1;strokeColor=none;fillColor=none;align=right;verticalAlign=middle;whiteSpace=wrap;rounded=0;fontFamily=Arial;" vertex="1" parent="1">
          <mxGeometry x="485.00000000000006" y="453.17999999999995" width="20" as="geometry" />
        </mxCell>
        <mxCell id="8SRtj76MumQYrMwY1Euz-19" style="edgeStyle=orthogonalEdgeStyle;rounded=0;orthogonalLoop=1;jettySize=auto;html=1;entryX=0;entryY=0.5;entryDx=0;entryDy=0;fontFamily=Arial;fontSize=8;endArrow=none;endFill=0;strokeWidth=1;fillColor=#000000;exitX=1;exitY=0.5;exitDx=0;exitDy=0;" edge="1" parent="1">
          <mxGeometry relative="1" as="geometry">
            <mxPoint x="534.84" y="225.07999999999998" as="targetPoint" />
            <mxPoint x="482.84" y="225.07999999999998" as="sourcePoint" />
            <Array as="points" />
          </mxGeometry>
        </mxCell>
        <mxCell id="8SRtj76MumQYrMwY1Euz-21" style="edgeStyle=orthogonalEdgeStyle;rounded=0;orthogonalLoop=1;jettySize=auto;html=1;fontFamily=Arial;fontSize=8;endArrow=none;endFill=0;strokeWidth=1;fillColor=#000000;entryX=1;entryY=0.5;entryDx=0;entryDy=0;exitX=0;exitY=0.5;exitDx=0;exitDy=0;" edge="1" parent="1" source="8SRtj76MumQYrMwY1Euz-1">
          <mxGeometry relative="1" as="geometry">
            <mxPoint x="612.16" y="445.905" as="targetPoint" />
            <mxPoint x="711.16" y="446.15999999999997" as="sourcePoint" />
            <Array as="points" />
          </mxGeometry>
        </mxCell>
      </root>
    </mxGraphModel>
  </diagram>
</mxfile>
